<svg width="308" height="333" viewBox="0 0 308 333" fill="none" xmlns="http://www.w3.org/2000/svg">
<ellipse cx="154" cy="166.32" rx="154" ry="166.32" fill="#28C3D4" fill-opacity="0.3"/>
<ellipse cx="154" cy="166.731" rx="144.965" ry="151.947" fill="#28C3D4" fill-opacity="0.5"/>
<ellipse cx="153.589" cy="166.731" rx="128.949" ry="139.627" fill="#28C3D4" fill-opacity="0.7"/>
<ellipse cx="154" cy="166.32" rx="115.397" ry="121.968" fill="#28C3D4"/>
<path d="M52.9551 165.877H50.4648V144.461H62.4033V146.673H52.9551V154.51H61.832V156.722H52.9551V165.877ZM68.0283 165.877H65.5967V149.823H68.0283V165.877ZM65.3916 145.472C65.3916 144.915 65.5283 144.51 65.8018 144.256C66.0752 143.993 66.417 143.861 66.8271 143.861C67.2178 143.861 67.5547 143.993 67.8379 144.256C68.1211 144.52 68.2627 144.925 68.2627 145.472C68.2627 146.019 68.1211 146.429 67.8379 146.703C67.5547 146.966 67.2178 147.098 66.8271 147.098C66.417 147.098 66.0752 146.966 65.8018 146.703C65.5283 146.429 65.3916 146.019 65.3916 145.472ZM84.1709 165.877V155.492C84.1709 154.183 83.873 153.206 83.2773 152.562C82.6816 151.917 81.749 151.595 80.4795 151.595C78.7998 151.595 77.5693 152.049 76.7881 152.957C76.0068 153.866 75.6162 155.365 75.6162 157.454V165.877H73.1846V149.823H75.1621L75.5576 152.02H75.6748C76.1729 151.229 76.8711 150.619 77.7695 150.189C78.668 149.749 79.6689 149.53 80.7725 149.53C82.7061 149.53 84.1611 149.998 85.1377 150.936C86.1143 151.864 86.6025 153.353 86.6025 155.404V165.877H84.1709ZM102.54 163.724H102.408C101.285 165.355 99.6055 166.17 97.3691 166.17C95.2695 166.17 93.6338 165.453 92.4619 164.017C91.2998 162.581 90.7188 160.54 90.7188 157.894C90.7188 155.247 91.3047 153.192 92.4766 151.727C93.6484 150.262 95.2793 149.53 97.3691 149.53C99.5469 149.53 101.217 150.321 102.379 151.903H102.569L102.467 150.745L102.408 149.618V143.084H104.84V165.877H102.862L102.54 163.724ZM97.6768 164.134C99.3369 164.134 100.538 163.685 101.28 162.787C102.032 161.878 102.408 160.418 102.408 158.407V157.894C102.408 155.619 102.027 153.997 101.266 153.031C100.514 152.054 99.3076 151.566 97.6475 151.566C96.2217 151.566 95.1279 152.122 94.3662 153.236C93.6143 154.339 93.2383 155.902 93.2383 157.923C93.2383 159.974 93.6143 161.522 94.3662 162.567C95.1182 163.612 96.2217 164.134 97.6768 164.134ZM115.255 149.823H117.862L121.378 158.978C122.149 161.068 122.628 162.577 122.813 163.504H122.931C123.058 163.006 123.321 162.157 123.722 160.955C124.132 159.745 125.46 156.034 127.706 149.823H130.313L123.414 168.104C122.73 169.911 121.93 171.19 121.012 171.942C120.104 172.704 118.985 173.084 117.657 173.084C116.915 173.084 116.183 173.001 115.46 172.835V170.887C115.997 171.004 116.598 171.063 117.262 171.063C118.932 171.063 120.123 170.125 120.836 168.25L121.729 165.965L115.255 149.823ZM146.778 157.835C146.778 160.453 146.119 162.498 144.801 163.973C143.482 165.438 141.661 166.17 139.337 166.17C137.901 166.17 136.627 165.833 135.514 165.16C134.4 164.486 133.541 163.519 132.936 162.259C132.33 160.999 132.027 159.525 132.027 157.835C132.027 155.218 132.682 153.182 133.99 151.727C135.299 150.262 137.115 149.53 139.439 149.53C141.686 149.53 143.468 150.277 144.786 151.771C146.114 153.265 146.778 155.287 146.778 157.835ZM134.547 157.835C134.547 159.886 134.957 161.449 135.777 162.523C136.598 163.597 137.804 164.134 139.396 164.134C140.987 164.134 142.193 163.602 143.014 162.537C143.844 161.463 144.259 159.896 144.259 157.835C144.259 155.794 143.844 154.246 143.014 153.192C142.193 152.127 140.978 151.595 139.366 151.595C137.774 151.595 136.573 152.118 135.763 153.162C134.952 154.207 134.547 155.765 134.547 157.835ZM153.341 149.823V160.238C153.341 161.546 153.639 162.523 154.234 163.167C154.83 163.812 155.763 164.134 157.032 164.134C158.712 164.134 159.938 163.675 160.709 162.757C161.49 161.839 161.881 160.34 161.881 158.26V149.823H164.312V165.877H162.306L161.954 163.724H161.822C161.324 164.515 160.631 165.12 159.742 165.54C158.863 165.96 157.857 166.17 156.725 166.17C154.771 166.17 153.307 165.706 152.33 164.779C151.363 163.851 150.88 162.367 150.88 160.326V149.823H153.341ZM176.808 149.53C177.521 149.53 178.16 149.588 178.727 149.705L178.39 151.961C177.726 151.815 177.14 151.742 176.632 151.742C175.333 151.742 174.22 152.269 173.292 153.324C172.374 154.378 171.915 155.692 171.915 157.264V165.877H169.483V149.823H171.49L171.769 152.796H171.886C172.481 151.751 173.199 150.946 174.039 150.379C174.879 149.813 175.802 149.53 176.808 149.53ZM191.954 165.877H189.522V149.823H191.954V165.877ZM189.317 145.472C189.317 144.915 189.454 144.51 189.728 144.256C190.001 143.993 190.343 143.861 190.753 143.861C191.144 143.861 191.48 143.993 191.764 144.256C192.047 144.52 192.188 144.925 192.188 145.472C192.188 146.019 192.047 146.429 191.764 146.703C191.48 146.966 191.144 147.098 190.753 147.098C190.343 147.098 190.001 146.966 189.728 146.703C189.454 146.429 189.317 146.019 189.317 145.472ZM208.097 165.877V155.492C208.097 154.183 207.799 153.206 207.203 152.562C206.607 151.917 205.675 151.595 204.405 151.595C202.726 151.595 201.495 152.049 200.714 152.957C199.933 153.866 199.542 155.365 199.542 157.454V165.877H197.11V149.823H199.088L199.483 152.02H199.601C200.099 151.229 200.797 150.619 201.695 150.189C202.594 149.749 203.595 149.53 204.698 149.53C206.632 149.53 208.087 149.998 209.063 150.936C210.04 151.864 210.528 153.353 210.528 155.404V165.877H208.097ZM226.524 165.877V155.492C226.524 154.183 226.227 153.206 225.631 152.562C225.035 151.917 224.103 151.595 222.833 151.595C221.153 151.595 219.923 152.049 219.142 152.957C218.36 153.866 217.97 155.365 217.97 157.454V165.877H215.538V149.823H217.516L217.911 152.02H218.028C218.526 151.229 219.225 150.619 220.123 150.189C221.021 149.749 222.022 149.53 223.126 149.53C225.06 149.53 226.515 149.998 227.491 150.936C228.468 151.864 228.956 153.353 228.956 155.404V165.877H226.524ZM240.748 166.17C238.375 166.17 236.5 165.448 235.123 164.002C233.756 162.557 233.072 160.55 233.072 157.982C233.072 155.394 233.707 153.338 234.977 151.815C236.256 150.291 237.97 149.53 240.118 149.53C242.13 149.53 243.722 150.194 244.894 151.522C246.065 152.84 246.651 154.583 246.651 156.751V158.289H235.592C235.641 160.174 236.114 161.605 237.013 162.581C237.921 163.558 239.195 164.046 240.836 164.046C242.564 164.046 244.273 163.685 245.963 162.962V165.13C245.104 165.501 244.288 165.765 243.517 165.921C242.755 166.087 241.832 166.17 240.748 166.17ZM240.089 151.566C238.8 151.566 237.77 151.986 236.998 152.826C236.236 153.665 235.787 154.828 235.65 156.312H244.044C244.044 154.779 243.702 153.607 243.019 152.796C242.335 151.976 241.358 151.566 240.089 151.566ZM258.136 149.53C258.849 149.53 259.488 149.588 260.055 149.705L259.718 151.961C259.054 151.815 258.468 151.742 257.96 151.742C256.661 151.742 255.548 152.269 254.62 153.324C253.702 154.378 253.243 155.692 253.243 157.264V165.877H250.812V149.823H252.818L253.097 152.796H253.214C253.81 151.751 254.527 150.946 255.367 150.379C256.207 149.813 257.13 149.53 258.136 149.53ZM122.433 207.17C121.388 207.17 120.431 206.98 119.562 206.599C118.702 206.208 117.979 205.613 117.394 204.812H117.218C117.335 205.749 117.394 206.638 117.394 207.478V214.084H114.962V190.823H116.939L117.276 193.02H117.394C118.019 192.141 118.746 191.506 119.576 191.116C120.406 190.725 121.358 190.53 122.433 190.53C124.562 190.53 126.202 191.257 127.354 192.712C128.517 194.167 129.098 196.208 129.098 198.835C129.098 201.472 128.507 203.523 127.325 204.988C126.153 206.443 124.522 207.17 122.433 207.17ZM122.081 192.595C120.44 192.595 119.254 193.049 118.521 193.957C117.789 194.866 117.413 196.311 117.394 198.293V198.835C117.394 201.091 117.77 202.707 118.521 203.684C119.273 204.651 120.479 205.134 122.14 205.134C123.526 205.134 124.61 204.573 125.392 203.45C126.183 202.327 126.578 200.779 126.578 198.806C126.578 196.804 126.183 195.271 125.392 194.206C124.61 193.132 123.507 192.595 122.081 192.595ZM140.143 207.17C137.77 207.17 135.895 206.448 134.518 205.002C133.15 203.557 132.467 201.55 132.467 198.982C132.467 196.394 133.102 194.338 134.371 192.815C135.65 191.291 137.364 190.53 139.513 190.53C141.524 190.53 143.116 191.194 144.288 192.522C145.46 193.84 146.046 195.583 146.046 197.751V199.289H134.986C135.035 201.174 135.509 202.605 136.407 203.581C137.315 204.558 138.59 205.046 140.23 205.046C141.959 205.046 143.668 204.685 145.357 203.962V206.13C144.498 206.501 143.683 206.765 142.911 206.921C142.149 207.087 141.227 207.17 140.143 207.17ZM139.483 192.566C138.194 192.566 137.164 192.986 136.393 193.826C135.631 194.665 135.182 195.828 135.045 197.312H143.438C143.438 195.779 143.097 194.607 142.413 193.796C141.729 192.976 140.753 192.566 139.483 192.566ZM156.988 207.17C154.615 207.17 152.74 206.448 151.363 205.002C149.996 203.557 149.312 201.55 149.312 198.982C149.312 196.394 149.947 194.338 151.217 192.815C152.496 191.291 154.21 190.53 156.358 190.53C158.37 190.53 159.962 191.194 161.134 192.522C162.306 193.84 162.892 195.583 162.892 197.751V199.289H151.832C151.881 201.174 152.354 202.605 153.253 203.581C154.161 204.558 155.436 205.046 157.076 205.046C158.805 205.046 160.514 204.685 162.203 203.962V206.13C161.344 206.501 160.528 206.765 159.757 206.921C158.995 207.087 158.072 207.17 156.988 207.17ZM156.329 192.566C155.04 192.566 154.01 192.986 153.238 193.826C152.477 194.665 152.027 195.828 151.891 197.312H160.284C160.284 195.779 159.942 194.607 159.259 193.796C158.575 192.976 157.599 192.566 156.329 192.566ZM173.468 207.17C171.144 207.17 169.342 206.457 168.062 205.032C166.793 203.596 166.158 201.57 166.158 198.953C166.158 196.267 166.803 194.192 168.092 192.727C169.391 191.262 171.236 190.53 173.629 190.53C174.4 190.53 175.172 190.613 175.943 190.779C176.715 190.945 177.32 191.14 177.76 191.365L177.013 193.43C176.476 193.215 175.89 193.039 175.255 192.903C174.62 192.756 174.059 192.683 173.57 192.683C170.309 192.683 168.678 194.763 168.678 198.923C168.678 200.896 169.073 202.41 169.864 203.464C170.665 204.519 171.847 205.046 173.409 205.046C174.747 205.046 176.119 204.758 177.525 204.182V206.335C176.451 206.892 175.099 207.17 173.468 207.17ZM188.131 207.17C185.758 207.17 183.883 206.448 182.506 205.002C181.139 203.557 180.455 201.55 180.455 198.982C180.455 196.394 181.09 194.338 182.359 192.815C183.639 191.291 185.353 190.53 187.501 190.53C189.513 190.53 191.104 191.194 192.276 192.522C193.448 193.84 194.034 195.583 194.034 197.751V199.289H182.975C183.023 201.174 183.497 202.605 184.396 203.581C185.304 204.558 186.578 205.046 188.219 205.046C189.947 205.046 191.656 204.685 193.346 203.962V206.13C192.486 206.501 191.671 206.765 190.899 206.921C190.138 207.087 189.215 207.17 188.131 207.17ZM187.472 192.566C186.183 192.566 185.152 192.986 184.381 193.826C183.619 194.665 183.17 195.828 183.033 197.312H191.427C191.427 195.779 191.085 194.607 190.401 193.796C189.718 192.976 188.741 192.566 187.472 192.566Z" fill="white"/>
</svg>
