<svg width="308" height="333" viewBox="0 0 308 333" fill="none" xmlns="http://www.w3.org/2000/svg">
<ellipse cx="154" cy="166.32" rx="154" ry="166.32" fill="#FAFDCB" fill-opacity="0.3"/>
<ellipse cx="154" cy="166.731" rx="144.965" ry="151.947" fill="#FAFDCB" fill-opacity="0.5"/>
<ellipse cx="153.589" cy="166.731" rx="128.949" ry="139.627" fill="#FAFDCB" fill-opacity="0.7"/>
<ellipse cx="154" cy="166.32" rx="115.397" ry="121.968" fill="#FAFDCB"/>
<path d="M92.667 165.877H90.2061L85.8848 151.536C85.6797 150.902 85.4502 150.101 85.1963 149.134C84.9424 148.167 84.8106 147.586 84.8008 147.391C84.586 148.68 84.2442 150.091 83.7754 151.624L79.586 165.877H77.125L71.4268 144.461H74.0635L77.4473 157.689C77.916 159.544 78.2578 161.224 78.4727 162.728C78.7364 160.941 79.127 159.193 79.6446 157.484L83.4824 144.461H86.1192L90.1475 157.601C90.6162 159.115 91.0117 160.824 91.334 162.728C91.5196 161.341 91.8711 159.652 92.3887 157.66L95.7578 144.461H98.3946L92.667 165.877ZM108.165 166.17C105.792 166.17 103.917 165.448 102.54 164.002C101.173 162.557 100.489 160.55 100.489 157.982C100.489 155.394 101.124 153.338 102.394 151.815C103.673 150.291 105.387 149.53 107.535 149.53C109.547 149.53 111.139 150.194 112.311 151.522C113.482 152.84 114.068 154.583 114.068 156.751V158.289H103.009C103.058 160.174 103.531 161.605 104.43 162.581C105.338 163.558 106.612 164.046 108.253 164.046C109.981 164.046 111.69 163.685 113.38 162.962V165.13C112.521 165.501 111.705 165.765 110.934 165.921C110.172 166.087 109.249 166.17 108.165 166.17ZM107.506 151.566C106.217 151.566 105.187 151.986 104.415 152.826C103.653 153.665 103.204 154.828 103.067 156.312H111.461C111.461 154.779 111.119 153.607 110.436 152.796C109.752 151.976 108.775 151.566 107.506 151.566ZM120.66 165.877H118.229V143.084H120.66V165.877ZM132.232 166.17C129.908 166.17 128.106 165.457 126.827 164.032C125.558 162.596 124.923 160.57 124.923 157.953C124.923 155.267 125.567 153.192 126.856 151.727C128.155 150.262 130.001 149.53 132.394 149.53C133.165 149.53 133.937 149.613 134.708 149.779C135.48 149.945 136.085 150.14 136.524 150.365L135.777 152.43C135.24 152.215 134.654 152.039 134.02 151.903C133.385 151.756 132.823 151.683 132.335 151.683C129.073 151.683 127.442 153.763 127.442 157.923C127.442 159.896 127.838 161.41 128.629 162.464C129.43 163.519 130.611 164.046 132.174 164.046C133.512 164.046 134.884 163.758 136.29 163.182V165.335C135.216 165.892 133.863 166.17 132.232 166.17ZM153.971 157.835C153.971 160.453 153.312 162.498 151.993 163.973C150.675 165.438 148.854 166.17 146.529 166.17C145.094 166.17 143.819 165.833 142.706 165.16C141.593 164.486 140.733 163.519 140.128 162.259C139.522 160.999 139.22 159.525 139.22 157.835C139.22 155.218 139.874 153.182 141.183 151.727C142.491 150.262 144.308 149.53 146.632 149.53C148.878 149.53 150.66 150.277 151.979 151.771C153.307 153.265 153.971 155.286 153.971 157.835ZM141.739 157.835C141.739 159.886 142.149 161.449 142.97 162.523C143.79 163.597 144.996 164.134 146.588 164.134C148.18 164.134 149.386 163.602 150.206 162.537C151.036 161.463 151.451 159.896 151.451 157.835C151.451 155.794 151.036 154.246 150.206 153.192C149.386 152.127 148.17 151.595 146.559 151.595C144.967 151.595 143.766 152.118 142.955 153.162C142.145 154.207 141.739 155.765 141.739 157.835ZM178.712 165.877V155.433C178.712 154.154 178.438 153.197 177.892 152.562C177.345 151.917 176.495 151.595 175.343 151.595C173.829 151.595 172.711 152.03 171.988 152.899C171.266 153.768 170.904 155.106 170.904 156.912V165.877H168.473V155.433C168.473 154.154 168.199 153.197 167.652 152.562C167.105 151.917 166.251 151.595 165.089 151.595C163.565 151.595 162.447 152.054 161.734 152.972C161.031 153.88 160.68 155.374 160.68 157.454V165.877H158.248V149.823H160.226L160.621 152.02H160.738C161.197 151.239 161.842 150.628 162.672 150.189C163.512 149.749 164.449 149.53 165.484 149.53C167.994 149.53 169.635 150.438 170.406 152.254H170.523C171.002 151.414 171.695 150.75 172.604 150.262C173.512 149.774 174.547 149.53 175.709 149.53C177.525 149.53 178.883 149.998 179.781 150.936C180.689 151.864 181.144 153.353 181.144 155.404V165.877H178.712ZM192.95 166.17C190.577 166.17 188.702 165.448 187.325 164.002C185.958 162.557 185.274 160.55 185.274 157.982C185.274 155.394 185.909 153.338 187.179 151.815C188.458 150.291 190.172 149.53 192.32 149.53C194.332 149.53 195.924 150.194 197.096 151.522C198.268 152.84 198.854 154.583 198.854 156.751V158.289H187.794C187.843 160.174 188.316 161.605 189.215 162.581C190.123 163.558 191.397 164.046 193.038 164.046C194.767 164.046 196.476 163.685 198.165 162.962V165.13C197.306 165.501 196.49 165.765 195.719 165.921C194.957 166.087 194.034 166.17 192.95 166.17ZM192.291 151.566C191.002 151.566 189.972 151.986 189.2 152.826C188.439 153.665 187.989 154.828 187.853 156.312H196.246C196.246 154.779 195.904 153.607 195.221 152.796C194.537 151.976 193.561 151.566 192.291 151.566ZM215.992 164.163C216.422 164.163 216.837 164.134 217.237 164.076C217.638 164.007 217.955 163.939 218.189 163.87V165.731C217.926 165.858 217.535 165.96 217.018 166.038C216.51 166.126 216.051 166.17 215.641 166.17C212.535 166.17 210.982 164.535 210.982 161.263V151.712H208.683V150.54L210.982 149.53L212.008 146.102H213.414V149.823H218.072V151.712H213.414V161.161C213.414 162.127 213.644 162.87 214.103 163.387C214.562 163.905 215.191 164.163 215.992 164.163ZM235.27 157.835C235.27 160.453 234.61 162.498 233.292 163.973C231.974 165.438 230.152 166.17 227.828 166.17C226.393 166.17 225.118 165.833 224.005 165.16C222.892 164.486 222.032 163.519 221.427 162.259C220.821 160.999 220.519 159.525 220.519 157.835C220.519 155.218 221.173 153.182 222.481 151.727C223.79 150.262 225.606 149.53 227.931 149.53C230.177 149.53 231.959 150.277 233.277 151.771C234.605 153.265 235.27 155.286 235.27 157.835ZM223.038 157.835C223.038 159.886 223.448 161.449 224.269 162.523C225.089 163.597 226.295 164.134 227.887 164.134C229.479 164.134 230.685 163.602 231.505 162.537C232.335 161.463 232.75 159.896 232.75 157.835C232.75 155.794 232.335 154.246 231.505 153.192C230.685 152.127 229.469 151.595 227.857 151.595C226.266 151.595 225.064 152.118 224.254 153.162C223.443 154.207 223.038 155.765 223.038 157.835ZM133.858 206.877H131.397L127.076 192.536C126.871 191.902 126.642 191.101 126.388 190.134C126.134 189.167 126.002 188.586 125.992 188.391C125.777 189.68 125.436 191.091 124.967 192.624L120.777 206.877H118.316L112.618 185.461H115.255L118.639 198.689C119.107 200.544 119.449 202.224 119.664 203.728C119.928 201.941 120.318 200.193 120.836 198.484L124.674 185.461H127.311L131.339 198.601C131.808 200.115 132.203 201.824 132.525 203.728C132.711 202.341 133.063 200.652 133.58 198.66L136.949 185.461H139.586L133.858 206.877ZM156.402 206.877L153.736 200.066H145.152L142.516 206.877H139.996L148.463 185.373H150.558L158.98 206.877H156.402ZM152.96 197.825L150.47 191.189C150.147 190.349 149.815 189.319 149.474 188.098C149.259 189.036 148.951 190.066 148.551 191.189L146.031 197.825H152.96ZM169.029 207.17C167.984 207.17 167.027 206.98 166.158 206.599C165.299 206.208 164.576 205.613 163.99 204.812H163.814C163.932 205.749 163.99 206.638 163.99 207.478V214.084H161.559V190.823H163.536L163.873 193.02H163.99C164.615 192.141 165.343 191.506 166.173 191.116C167.003 190.725 167.955 190.53 169.029 190.53C171.158 190.53 172.799 191.257 173.951 192.712C175.113 194.167 175.694 196.208 175.694 198.835C175.694 201.472 175.104 203.523 173.922 204.988C172.75 206.443 171.119 207.17 169.029 207.17ZM168.678 192.595C167.037 192.595 165.851 193.049 165.118 193.957C164.386 194.866 164.01 196.311 163.99 198.293V198.835C163.99 201.091 164.366 202.707 165.118 203.684C165.87 204.651 167.076 205.134 168.736 205.134C170.123 205.134 171.207 204.573 171.988 203.45C172.779 202.327 173.175 200.779 173.175 198.806C173.175 196.804 172.779 195.271 171.988 194.206C171.207 193.132 170.104 192.595 168.678 192.595ZM187.428 207.17C186.383 207.17 185.426 206.98 184.557 206.599C183.697 206.208 182.975 205.613 182.389 204.812H182.213C182.33 205.749 182.389 206.638 182.389 207.478V214.084H179.957V190.823H181.935L182.272 193.02H182.389C183.014 192.141 183.741 191.506 184.571 191.116C185.401 190.725 186.354 190.53 187.428 190.53C189.557 190.53 191.197 191.257 192.35 192.712C193.512 194.167 194.093 196.208 194.093 198.835C194.093 201.472 193.502 203.523 192.32 204.988C191.148 206.443 189.518 207.17 187.428 207.17ZM187.076 192.595C185.436 192.595 184.249 193.049 183.517 193.957C182.784 194.866 182.408 196.311 182.389 198.293V198.835C182.389 201.091 182.765 202.707 183.517 203.684C184.269 204.651 185.475 205.134 187.135 205.134C188.522 205.134 189.605 204.573 190.387 203.45C191.178 202.327 191.573 200.779 191.573 198.806C191.573 196.804 191.178 195.271 190.387 194.206C189.605 193.132 188.502 192.595 187.076 192.595Z" fill="#28C3D4"/>
</svg>
