<svg width="76" height="80" viewBox="0 0 76 80" fill="none" xmlns="http://www.w3.org/2000/svg">
<path d="M16.125 11.5854H58.875V48.6585H16.125V11.5854Z" stroke="#FAFDCB" stroke-width="2" stroke-linejoin="round"/>
<path d="M58.875 20.8536H16.125" stroke="#FAFDCB" stroke-width="2" stroke-linecap="round"/>
<path d="M25.625 11.5854V6.95122" stroke="#FAFDCB" stroke-width="2" stroke-linecap="round"/>
<path d="M49.375 11.5854V6.95122" stroke="#FAFDCB" stroke-width="2" stroke-linecap="round"/>
<path d="M7.51953 62.9115C6.10742 62.9115 4.99121 63.3832 4.1709 64.3266C3.35645 65.2641 2.94922 66.5502 2.94922 68.185C2.94922 69.8666 3.3418 71.1674 4.12695 72.0873C4.91797 73.0014 6.04297 73.4584 7.50195 73.4584C8.39844 73.4584 9.4209 73.2973 10.5693 72.975V74.2846C9.67871 74.6185 8.58008 74.7855 7.27344 74.7855C5.38086 74.7855 3.91895 74.2113 2.8877 73.0629C1.8623 71.9144 1.34961 70.2826 1.34961 68.1674C1.34961 66.8432 1.5957 65.683 2.08789 64.6869C2.58594 63.6908 3.30078 62.9232 4.23242 62.3842C5.16992 61.8451 6.27148 61.5756 7.53711 61.5756C8.88477 61.5756 10.0625 61.8217 11.0703 62.3139L10.4375 63.5971C9.46484 63.14 8.49219 62.9115 7.51953 62.9115ZM19.0771 74.6098L18.7871 73.2387H18.7168C18.2363 73.8422 17.7559 74.2523 17.2754 74.4691C16.8008 74.6801 16.2061 74.7855 15.4912 74.7855C14.5361 74.7855 13.7861 74.5394 13.2412 74.0473C12.7021 73.5551 12.4326 72.8549 12.4326 71.9467C12.4326 70.0014 13.9883 68.9818 17.0996 68.8881L18.7344 68.8353V68.2377C18.7344 67.4818 18.5703 66.9252 18.2422 66.5678C17.9199 66.2045 17.4014 66.0228 16.6865 66.0228C15.8838 66.0228 14.9756 66.2689 13.9619 66.7611L13.5137 65.6449C13.9883 65.3871 14.5068 65.185 15.0693 65.0385C15.6377 64.892 16.2061 64.8187 16.7744 64.8187C17.9229 64.8187 18.7725 65.0736 19.3232 65.5834C19.8799 66.0932 20.1582 66.9105 20.1582 68.0355V74.6098H19.0771ZM15.7812 73.5814C16.6895 73.5814 17.4014 73.3324 17.917 72.8344C18.4385 72.3363 18.6992 71.6391 18.6992 70.7426V69.8725L17.2402 69.934C16.0801 69.975 15.2422 70.1566 14.7266 70.4789C14.2168 70.7953 13.9619 71.2904 13.9619 71.9642C13.9619 72.4916 14.1201 72.893 14.4365 73.1684C14.7588 73.4437 15.207 73.5814 15.7812 73.5814ZM24.6318 74.6098H23.1729V60.934H24.6318V74.6098ZM31.7949 74.7855C30.3711 74.7855 29.2461 74.3519 28.4199 73.4848C27.5996 72.6176 27.1895 71.4135 27.1895 69.8725C27.1895 68.3197 27.5703 67.0863 28.332 66.1723C29.0996 65.2582 30.1279 64.8012 31.417 64.8012C32.624 64.8012 33.5791 65.1996 34.2822 65.9965C34.9854 66.7875 35.3369 67.8334 35.3369 69.1342V70.057H28.7012C28.7305 71.1879 29.0146 72.0463 29.5537 72.6322C30.0986 73.2182 30.8633 73.5111 31.8477 73.5111C32.8848 73.5111 33.9102 73.2943 34.9238 72.8607V74.1615C34.4082 74.3842 33.9189 74.5424 33.4561 74.6361C32.999 74.7357 32.4453 74.7855 31.7949 74.7855ZM31.3994 66.0228C30.626 66.0228 30.0078 66.2748 29.5449 66.7787C29.0879 67.2826 28.8184 67.9799 28.7363 68.8705H33.7725C33.7725 67.9506 33.5674 67.2475 33.1572 66.7611C32.7471 66.2689 32.1611 66.0228 31.3994 66.0228ZM44.4248 74.6098V68.3783C44.4248 67.5932 44.2461 67.0072 43.8887 66.6205C43.5312 66.2338 42.9717 66.0404 42.21 66.0404C41.2021 66.0404 40.4639 66.3129 39.9951 66.8578C39.5264 67.4027 39.292 68.3021 39.292 69.556V74.6098H37.833V64.9769H39.0195L39.2568 66.2953H39.3271C39.626 65.8207 40.0449 65.4545 40.584 65.1967C41.123 64.933 41.7236 64.8012 42.3857 64.8012C43.5459 64.8012 44.4189 65.0824 45.0049 65.6449C45.5908 66.2016 45.8838 67.0951 45.8838 68.3256V74.6098H44.4248ZM55.4463 73.3178H55.3672C54.6934 74.2963 53.6855 74.7855 52.3438 74.7855C51.084 74.7855 50.1025 74.3549 49.3994 73.4935C48.7021 72.6322 48.3535 71.4076 48.3535 69.8197C48.3535 68.2318 48.7051 66.9984 49.4082 66.1195C50.1113 65.2406 51.0898 64.8012 52.3438 64.8012C53.6504 64.8012 54.6523 65.2758 55.3496 66.225H55.4639L55.4023 65.5307L55.3672 64.8539V60.934H56.8262V74.6098H55.6396L55.4463 73.3178ZM52.5283 73.5639C53.5244 73.5639 54.2451 73.2943 54.6904 72.7553C55.1416 72.2103 55.3672 71.3344 55.3672 70.1273V69.8197C55.3672 68.4545 55.1387 67.4818 54.6816 66.9017C54.2305 66.3158 53.5068 66.0228 52.5107 66.0228C51.6553 66.0228 50.999 66.3568 50.542 67.0248C50.0908 67.6869 49.8652 68.6244 49.8652 69.8373C49.8652 71.0678 50.0908 71.9965 50.542 72.6234C50.9932 73.2504 51.6553 73.5639 52.5283 73.5639ZM65.8525 74.6098L65.5625 73.2387H65.4922C65.0117 73.8422 64.5312 74.2523 64.0508 74.4691C63.5762 74.6801 62.9814 74.7855 62.2666 74.7855C61.3115 74.7855 60.5615 74.5394 60.0166 74.0473C59.4775 73.5551 59.208 72.8549 59.208 71.9467C59.208 70.0014 60.7637 68.9818 63.875 68.8881L65.5098 68.8353V68.2377C65.5098 67.4818 65.3457 66.9252 65.0176 66.5678C64.6953 66.2045 64.1768 66.0228 63.4619 66.0228C62.6592 66.0228 61.751 66.2689 60.7373 66.7611L60.2891 65.6449C60.7637 65.3871 61.2822 65.185 61.8447 65.0385C62.4131 64.892 62.9814 64.8187 63.5498 64.8187C64.6982 64.8187 65.5479 65.0736 66.0986 65.5834C66.6553 66.0932 66.9336 66.9105 66.9336 68.0355V74.6098H65.8525ZM62.5566 73.5814C63.4648 73.5814 64.1768 73.3324 64.6924 72.8344C65.2139 72.3363 65.4746 71.6391 65.4746 70.7426V69.8725L64.0156 69.934C62.8555 69.975 62.0176 70.1566 61.502 70.4789C60.9922 70.7953 60.7373 71.2904 60.7373 71.9642C60.7373 72.4916 60.8955 72.893 61.2119 73.1684C61.5342 73.4437 61.9824 73.5814 62.5566 73.5814ZM74.3428 64.8012C74.7705 64.8012 75.1543 64.8363 75.4941 64.9066L75.292 66.2601C74.8936 66.1723 74.542 66.1283 74.2373 66.1283C73.458 66.1283 72.79 66.4447 72.2334 67.0775C71.6826 67.7103 71.4072 68.4984 71.4072 69.4418V74.6098H69.9482V64.9769H71.1523L71.3193 66.7611H71.3896C71.7471 66.1342 72.1777 65.6508 72.6816 65.3109C73.1855 64.9711 73.7393 64.8012 74.3428 64.8012Z" fill="#FAFDCB"/>
</svg>
