<svg width="210" height="210" viewBox="0 0 210 210" fill="none" xmlns="http://www.w3.org/2000/svg">
<g filter="url(#filter0_d)">
<circle cx="105" cy="102" r="99" fill="#FFE180"/>
<circle cx="105" cy="102" r="99" fill="url(#paint0_radial)"/>
</g>
<path d="M65.8399 112H73.7239C86.9719 112 87.5119 101.128 87.5119 99.256C87.5119 97.384 86.9719 86.512 73.7239 86.512H65.8399V112ZM68.2159 88.672H73.1119C79.8799 88.672 85.1359 91.948 85.1359 99.256C85.1359 106.564 79.8799 109.84 73.1119 109.84H68.2159V88.672ZM92.2355 112H94.3955V102.928C94.3955 99.688 96.0875 97.096 99.8315 97.096C100.047 97.096 100.335 97.132 100.659 97.24L100.911 95.116C100.479 95.008 100.083 94.936 99.6515 94.936C97.1675 94.936 95.4395 96.34 94.3595 98.284C94.2875 97.96 94.2515 96.592 94.2155 95.368H92.0555C92.0555 96.232 92.2355 98.824 92.2355 100.048V112ZM104.584 112H106.744V95.368H104.584V112ZM104.044 88.78C104.044 89.68 104.764 90.4 105.664 90.4C106.564 90.4 107.284 89.68 107.284 88.78C107.284 87.88 106.564 87.16 105.664 87.16C104.764 87.16 104.044 87.88 104.044 88.78ZM112.872 112H115.032V103.684C115.032 99.112 117.588 96.88 120.792 96.88C124.212 96.88 124.968 99.508 124.968 102.208V112H127.128V102.1C127.128 98.464 125.976 94.936 120.792 94.936C118.092 94.936 115.968 96.448 115.104 98.284H114.996C114.924 97.96 114.888 96.592 114.852 95.368H112.692C112.692 96.232 112.872 98.824 112.872 100.048V112ZM132.876 112H135.036V103.216L144.144 112H147.42L137.844 103L146.412 95.404H143.244L135.036 102.928V84.784H132.876V112Z" fill="#FFCF2E"/>
<defs>
<filter id="filter0_d" x="0" y="0" width="210" height="210" filterUnits="userSpaceOnUse" color-interpolation-filters="sRGB">
<feFlood flood-opacity="0" result="BackgroundImageFix"/>
<feColorMatrix in="SourceAlpha" type="matrix" values="0 0 0 0 0 0 0 0 0 0 0 0 0 0 0 0 0 0 127 0"/>
<feOffset dy="3"/>
<feGaussianBlur stdDeviation="3"/>
<feColorMatrix type="matrix" values="0 0 0 0 0 0 0 0 0 0 0 0 0 0 0 0 0 0 0.25 0"/>
<feBlend mode="normal" in2="BackgroundImageFix" result="effect1_dropShadow"/>
<feBlend mode="normal" in="SourceGraphic" in2="effect1_dropShadow" result="shape"/>
</filter>
<radialGradient id="paint0_radial" cx="0" cy="0" r="1" gradientUnits="userSpaceOnUse" gradientTransform="translate(105 102) rotate(90) scale(99)">
<stop stop-color="#FFFCC1"/>
<stop offset="1" stop-color="white" stop-opacity="0"/>
</radialGradient>
</defs>
</svg>
