<svg width="210" height="210" viewBox="0 0 210 210" fill="none" xmlns="http://www.w3.org/2000/svg">
<g filter="url(#filter0_d)">
<circle cx="105" cy="102" r="99" fill="#FFE180"/>
<circle cx="105" cy="102" r="99" fill="url(#paint0_radial)"/>
</g>
<path d="M85.002 102.904C85.002 107.146 83.8477 110.393 81.5391 112.643C79.2422 114.881 75.9316 116 71.6074 116H64.4883V90.3008H72.3633C76.3594 90.3008 79.4648 91.4082 81.6797 93.623C83.8945 95.8379 85.002 98.9316 85.002 102.904ZM81.8379 103.01C81.8379 99.6582 80.9941 97.1328 79.3066 95.4336C77.6309 93.7344 75.1348 92.8848 71.8184 92.8848H67.4766V113.416H71.1152C74.6777 113.416 77.3555 112.543 79.1484 110.797C80.9414 109.039 81.8379 106.443 81.8379 103.01ZM99.0996 96.3828C99.9551 96.3828 100.723 96.4531 101.402 96.5938L100.998 99.3008C100.201 99.125 99.498 99.0371 98.8887 99.0371C97.3301 99.0371 95.9941 99.6699 94.8809 100.936C93.7793 102.201 93.2285 103.777 93.2285 105.664V116H90.3105V96.7344H92.7188L93.0527 100.303H93.1934C93.9082 99.0488 94.7695 98.082 95.7773 97.4023C96.7852 96.7227 97.8926 96.3828 99.0996 96.3828ZM107.924 116H105.006V96.7344H107.924V116ZM104.76 91.5137C104.76 90.8457 104.924 90.3594 105.252 90.0547C105.58 89.7383 105.99 89.5801 106.482 89.5801C106.951 89.5801 107.355 89.7383 107.695 90.0547C108.035 90.3711 108.205 90.8574 108.205 91.5137C108.205 92.1699 108.035 92.6621 107.695 92.9902C107.355 93.3066 106.951 93.4648 106.482 93.4648C105.99 93.4648 105.58 93.3066 105.252 92.9902C104.924 92.6621 104.76 92.1699 104.76 91.5137ZM127.295 116V103.537C127.295 101.967 126.938 100.795 126.223 100.021C125.508 99.248 124.389 98.8613 122.865 98.8613C120.85 98.8613 119.373 99.4062 118.436 100.496C117.498 101.586 117.029 103.385 117.029 105.893V116H114.111V96.7344H116.484L116.959 99.3711H117.1C117.697 98.4219 118.535 97.6895 119.613 97.1738C120.691 96.6465 121.893 96.3828 123.217 96.3828C125.537 96.3828 127.283 96.9453 128.455 98.0703C129.627 99.1836 130.213 100.971 130.213 103.432V116H127.295ZM139.107 106.139C139.611 105.424 140.379 104.486 141.41 103.326L147.633 96.7344H151.096L143.291 104.943L151.641 116H148.107L141.305 106.895L139.107 108.793V116H136.225V88.6484H139.107V103.15C139.107 103.795 139.061 104.791 138.967 106.139H139.107Z" fill="#FFCF2E"/>
<defs>
<filter id="filter0_d" x="0" y="0" width="210" height="210" filterUnits="userSpaceOnUse" color-interpolation-filters="sRGB">
<feFlood flood-opacity="0" result="BackgroundImageFix"/>
<feColorMatrix in="SourceAlpha" type="matrix" values="0 0 0 0 0 0 0 0 0 0 0 0 0 0 0 0 0 0 127 0"/>
<feOffset dy="3"/>
<feGaussianBlur stdDeviation="3"/>
<feColorMatrix type="matrix" values="0 0 0 0 0 0 0 0 0 0 0 0 0 0 0 0 0 0 0.25 0"/>
<feBlend mode="normal" in2="BackgroundImageFix" result="effect1_dropShadow"/>
<feBlend mode="normal" in="SourceGraphic" in2="effect1_dropShadow" result="shape"/>
</filter>
<radialGradient id="paint0_radial" cx="0" cy="0" r="1" gradientUnits="userSpaceOnUse" gradientTransform="translate(105 102) rotate(90) scale(99)">
<stop stop-color="#FFFCC1"/>
<stop offset="1" stop-color="white" stop-opacity="0"/>
</radialGradient>
</defs>
</svg>
