<svg width="72" height="81" viewBox="0 0 72 81" fill="none" xmlns="http://www.w3.org/2000/svg">
<path d="M8.26172 75.0981H6.76758V62.2485H13.9307V63.5756H8.26172V68.2778H13.5879V69.6049H8.26172V75.0981ZM20.2412 65.2895C20.6689 65.2895 21.0527 65.3246 21.3926 65.395L21.1904 66.7485C20.792 66.6606 20.4404 66.6166 20.1357 66.6166C19.3564 66.6166 18.6885 66.933 18.1318 67.5659C17.5811 68.1987 17.3057 68.9868 17.3057 69.9301V75.0981H15.8467V65.4653H17.0508L17.2178 67.2495H17.2881C17.6455 66.6225 18.0762 66.1391 18.5801 65.7993C19.084 65.4594 19.6377 65.2895 20.2412 65.2895ZM24.6533 75.0981H23.1943V65.4653H24.6533V75.0981ZM23.0713 62.8549C23.0713 62.5209 23.1533 62.2778 23.3174 62.1254C23.4814 61.9672 23.6865 61.8881 23.9326 61.8881C24.167 61.8881 24.3691 61.9672 24.5391 62.1254C24.709 62.2836 24.7939 62.5268 24.7939 62.8549C24.7939 63.183 24.709 63.4291 24.5391 63.5932C24.3691 63.7514 24.167 63.8305 23.9326 63.8305C23.6865 63.8305 23.4814 63.7514 23.3174 63.5932C23.1533 63.4291 23.0713 63.183 23.0713 62.8549ZM31.8164 75.2739C30.3926 75.2739 29.2676 74.8403 28.4414 73.9731C27.6211 73.1059 27.2109 71.9018 27.2109 70.3608C27.2109 68.808 27.5918 67.5746 28.3535 66.6606C29.1211 65.7465 30.1494 65.2895 31.4385 65.2895C32.6455 65.2895 33.6006 65.6879 34.3037 66.4848C35.0068 67.2758 35.3584 68.3217 35.3584 69.6225V70.5453H28.7227C28.752 71.6762 29.0361 72.5346 29.5752 73.1205C30.1201 73.7065 30.8848 73.9995 31.8691 73.9995C32.9062 73.9995 33.9316 73.7827 34.9453 73.3491V74.6498C34.4297 74.8725 33.9404 75.0307 33.4775 75.1245C33.0205 75.2241 32.4668 75.2739 31.8164 75.2739ZM31.4209 66.5112C30.6475 66.5112 30.0293 66.7631 29.5664 67.267C29.1094 67.7709 28.8398 68.4682 28.7578 69.3588H33.7939C33.7939 68.4389 33.5889 67.7358 33.1787 67.2495C32.7686 66.7573 32.1826 66.5112 31.4209 66.5112ZM44.4463 75.0981V68.8666C44.4463 68.0815 44.2676 67.4955 43.9102 67.1088C43.5527 66.7221 42.9932 66.5287 42.2314 66.5287C41.2236 66.5287 40.4854 66.8012 40.0166 67.3461C39.5479 67.8911 39.3135 68.7905 39.3135 70.0444V75.0981H37.8545V65.4653H39.041L39.2783 66.7836H39.3486C39.6475 66.309 40.0664 65.9428 40.6055 65.685C41.1445 65.4213 41.7451 65.2895 42.4072 65.2895C43.5674 65.2895 44.4404 65.5707 45.0264 66.1332C45.6123 66.6899 45.9053 67.5834 45.9053 68.8139V75.0981H44.4463ZM55.4678 73.8061H55.3887C54.7148 74.7846 53.707 75.2739 52.3652 75.2739C51.1055 75.2739 50.124 74.8432 49.4209 73.9819C48.7236 73.1205 48.375 71.8959 48.375 70.308C48.375 68.7202 48.7266 67.4868 49.4297 66.6078C50.1328 65.7289 51.1113 65.2895 52.3652 65.2895C53.6719 65.2895 54.6738 65.7641 55.3711 66.7133H55.4854L55.4238 66.019L55.3887 65.3422V61.4223H56.8477V75.0981H55.6611L55.4678 73.8061ZM52.5498 74.0522C53.5459 74.0522 54.2666 73.7827 54.7119 73.2436C55.1631 72.6987 55.3887 71.8227 55.3887 70.6157V70.308C55.3887 68.9428 55.1602 67.9702 54.7031 67.3901C54.252 66.8041 53.5283 66.5112 52.5322 66.5112C51.6768 66.5112 51.0205 66.8452 50.5635 67.5131C50.1123 68.1752 49.8867 69.1127 49.8867 70.3256C49.8867 71.5561 50.1123 72.4848 50.5635 73.1118C51.0146 73.7387 51.6768 74.0522 52.5498 74.0522ZM66.1641 72.4702C66.1641 73.3666 65.8301 74.058 65.1621 74.5444C64.4941 75.0307 63.5566 75.2739 62.3496 75.2739C61.0723 75.2739 60.0762 75.0717 59.3613 74.6674V73.3139C59.8242 73.5483 60.3193 73.7328 60.8467 73.8676C61.3799 74.0024 61.8926 74.0698 62.3848 74.0698C63.1465 74.0698 63.7324 73.9496 64.1426 73.7094C64.5527 73.4633 64.7578 73.0912 64.7578 72.5932C64.7578 72.2182 64.5938 71.8989 64.2656 71.6352C63.9434 71.3657 63.3105 71.0493 62.3672 70.686C61.4707 70.352 60.832 70.062 60.4512 69.8159C60.0762 69.5639 59.7949 69.2797 59.6074 68.9633C59.4258 68.6469 59.335 68.269 59.335 67.8295C59.335 67.0444 59.6543 66.4262 60.293 65.975C60.9316 65.518 61.8076 65.2895 62.9209 65.2895C63.958 65.2895 64.9717 65.5004 65.9619 65.9223L65.4434 67.1088C64.4766 66.7104 63.6006 66.5112 62.8154 66.5112C62.124 66.5112 61.6025 66.6196 61.251 66.8364C60.8994 67.0532 60.7236 67.352 60.7236 67.7328C60.7236 67.9907 60.7881 68.2104 60.917 68.392C61.0518 68.5737 61.2656 68.7465 61.5586 68.9106C61.8516 69.0746 62.4141 69.312 63.2461 69.6225C64.3887 70.0385 65.1592 70.4575 65.5576 70.8793C65.9619 71.3012 66.1641 71.8315 66.1641 72.4702Z" fill="#FAFDCB"/>
<path d="M3 52.6034C3 46.0666 12 46.0666 16.5 41.7087C18.75 39.5297 12 39.5297 12 28.635C12 21.3725 14.9992 17.7402 21 17.7402C27.0008 17.7402 30 21.3725 30 28.635C30 39.5297 23.25 39.5297 25.5 41.7087C30 46.0666 39 46.0666 39 52.6034" stroke="#FAFDCB" stroke-width="2" stroke-linecap="round"/>
<path d="M35.9843 47.4991C37.6853 46.3639 39.8934 45.5465 42.0064 44.561C43.6584 43.7904 45.2522 42.9171 46.5001 41.7087C48.7501 39.5297 42.0001 39.5297 42.0001 28.635C42.0001 21.3725 44.9993 17.7402 51.0001 17.7402C57.0008 17.7402 60.0001 21.3725 60.0001 28.635C60.0001 39.5297 53.2501 39.5297 55.5001 41.7087C60.0001 46.0666 69.0001 46.0666 69.0001 52.6034" stroke="#FAFDCB" stroke-width="2" stroke-linecap="round"/>
</svg>
