<svg width="55" height="81" viewBox="0 0 55 81" fill="none" xmlns="http://www.w3.org/2000/svg">
<path d="M14.0078 75.3201H12.5137V69.2733H5.74609V75.3201H4.25195V62.4705H5.74609V67.9373H12.5137V62.4705H14.0078V75.3201ZM25.6357 70.4949C25.6357 72.0652 25.2402 73.2928 24.4492 74.1776C23.6582 75.0565 22.5654 75.4959 21.1709 75.4959C20.3096 75.4959 19.5449 75.2938 18.877 74.8895C18.209 74.4852 17.6934 73.9051 17.3301 73.1492C16.9668 72.3934 16.7852 71.5086 16.7852 70.4949C16.7852 68.9246 17.1777 67.7029 17.9629 66.8299C18.748 65.951 19.8379 65.5115 21.2324 65.5115C22.5801 65.5115 23.6494 65.9598 24.4404 66.8563C25.2373 67.7527 25.6357 68.9656 25.6357 70.4949ZM18.2969 70.4949C18.2969 71.7254 18.543 72.6629 19.0352 73.3074C19.5273 73.952 20.251 74.2742 21.2061 74.2742C22.1611 74.2742 22.8848 73.9549 23.377 73.3162C23.875 72.6717 24.124 71.7313 24.124 70.4949C24.124 69.2703 23.875 68.3416 23.377 67.7088C22.8848 67.0701 22.1553 66.7508 21.1885 66.7508C20.2334 66.7508 19.5127 67.0643 19.0264 67.6912C18.54 68.3182 18.2969 69.2527 18.2969 70.4949ZM40.4805 75.3201V69.0535C40.4805 68.2859 40.3164 67.7117 39.9883 67.3309C39.6602 66.9442 39.1504 66.7508 38.459 66.7508C37.5508 66.7508 36.8799 67.0115 36.4463 67.533C36.0127 68.0545 35.7959 68.8572 35.7959 69.9412V75.3201H34.3369V69.0535C34.3369 68.2859 34.1729 67.7117 33.8447 67.3309C33.5166 66.9442 33.0039 66.7508 32.3066 66.7508C31.3926 66.7508 30.7217 67.0262 30.2939 67.577C29.8721 68.1219 29.6611 69.0184 29.6611 70.2664V75.3201H28.2021V65.6873H29.3887L29.626 67.0057H29.6963C29.9717 66.5369 30.3584 66.1707 30.8564 65.907C31.3604 65.6434 31.9229 65.5115 32.5439 65.5115C34.0498 65.5115 35.0342 66.0565 35.4971 67.1463H35.5674C35.8545 66.6424 36.2705 66.244 36.8154 65.951C37.3604 65.658 37.9814 65.5115 38.6787 65.5115C39.7686 65.5115 40.583 65.7928 41.1221 66.3553C41.667 66.9119 41.9395 67.8055 41.9395 69.0359V75.3201H40.4805ZM49.0234 75.4959C47.5996 75.4959 46.4746 75.0623 45.6484 74.1951C44.8281 73.3279 44.418 72.1238 44.418 70.5828C44.418 69.0301 44.7988 67.7967 45.5605 66.8826C46.3281 65.9686 47.3564 65.5115 48.6455 65.5115C49.8525 65.5115 50.8076 65.91 51.5107 66.7068C52.2139 67.4979 52.5654 68.5438 52.5654 69.8445V70.7674H45.9297C45.959 71.8983 46.2432 72.7567 46.7822 73.3426C47.3271 73.9285 48.0918 74.2215 49.0762 74.2215C50.1133 74.2215 51.1387 74.0047 52.1523 73.5711V74.8719C51.6367 75.0945 51.1475 75.2527 50.6846 75.3465C50.2275 75.4461 49.6738 75.4959 49.0234 75.4959ZM48.6279 66.7332C47.8545 66.7332 47.2363 66.9852 46.7734 67.4891C46.3164 67.993 46.0469 68.6902 45.9648 69.5809H51.001C51.001 68.6609 50.7959 67.9578 50.3857 67.4715C49.9756 66.9793 49.3896 66.7332 48.6279 66.7332Z" fill="#FAFDCB"/>
<path d="M6.875 47.9018V22.1547L27.5 4.59985L48.125 22.1547V47.9018H6.875Z" stroke="#FAFDCB" stroke-width="2"/>
<rect x="20.625" y="30.347" width="13.75" height="17.1648" rx="1" stroke="#FAFDCB" stroke-width="2"/>
</svg>
