<svg width="98" height="80" viewBox="0 0 98 80" fill="none" xmlns="http://www.w3.org/2000/svg">
<path d="M2.12793 74.5558V61.7062H3.62207V73.2023H9.29102V74.5558H2.12793ZM12.7188 74.5558H11.2598V64.923H12.7188V74.5558ZM11.1367 62.3126C11.1367 61.9786 11.2188 61.7355 11.3828 61.5831C11.5469 61.4249 11.752 61.3458 11.998 61.3458C12.2324 61.3458 12.4346 61.4249 12.6045 61.5831C12.7744 61.7413 12.8594 61.9845 12.8594 62.3126C12.8594 62.6407 12.7744 62.8868 12.6045 63.0509C12.4346 63.2091 12.2324 63.2882 11.998 63.2882C11.752 63.2882 11.5469 63.2091 11.3828 63.0509C11.2188 62.8868 11.1367 62.6407 11.1367 62.3126ZM18.9238 73.5275C19.1816 73.5275 19.4307 73.5099 19.6709 73.4747C19.9111 73.4337 20.1016 73.3927 20.2422 73.3517V74.4679C20.084 74.5441 19.8496 74.6056 19.5391 74.6525C19.2344 74.7052 18.959 74.7316 18.7129 74.7316C16.8496 74.7316 15.918 73.7501 15.918 71.7872V66.0568H14.5381V65.3536L15.918 64.7472L16.5332 62.6906H17.377V64.923H20.1719V66.0568H17.377V71.7257C17.377 72.3058 17.5146 72.7511 17.79 73.0616C18.0654 73.3722 18.4434 73.5275 18.9238 73.5275ZM26.5703 64.7472C26.998 64.7472 27.3818 64.7823 27.7217 64.8527L27.5195 66.2062C27.1211 66.1183 26.7695 66.0743 26.4648 66.0743C25.6855 66.0743 25.0176 66.3907 24.4609 67.0236C23.9102 67.6564 23.6348 68.4445 23.6348 69.3878V74.5558H22.1758V64.923H23.3799L23.5469 66.7072H23.6172C23.9746 66.0802 24.4053 65.5968 24.9092 65.257C25.4131 64.9171 25.9668 64.7472 26.5703 64.7472ZM33.5928 74.7316C32.1689 74.7316 31.0439 74.298 30.2178 73.4308C29.3975 72.5636 28.9873 71.3595 28.9873 69.8185C28.9873 68.2657 29.3682 67.0323 30.1299 66.1183C30.8975 65.2042 31.9258 64.7472 33.2148 64.7472C34.4219 64.7472 35.377 65.1456 36.0801 65.9425C36.7832 66.7335 37.1348 67.7794 37.1348 69.0802V70.0031H30.499C30.5283 71.1339 30.8125 71.9923 31.3516 72.5782C31.8965 73.1642 32.6611 73.4572 33.6455 73.4572C34.6826 73.4572 35.708 73.2404 36.7217 72.8068V74.1075C36.2061 74.3302 35.7168 74.4884 35.2539 74.5822C34.7969 74.6818 34.2432 74.7316 33.5928 74.7316ZM33.1973 65.9689C32.4238 65.9689 31.8057 66.2208 31.3428 66.7247C30.8857 67.2286 30.6162 67.9259 30.5342 68.8165H35.5703C35.5703 67.8966 35.3652 67.1935 34.9551 66.7072C34.5449 66.215 33.959 65.9689 33.1973 65.9689ZM39.8506 61.7062H43.4805C45.1855 61.7062 46.4189 61.9611 47.1807 62.4708C47.9424 62.9806 48.3232 63.7863 48.3232 64.8878C48.3232 65.6495 48.1094 66.2794 47.6816 66.7775C47.2598 67.2697 46.6416 67.589 45.8271 67.7355V67.8234C47.7783 68.1573 48.7539 69.1827 48.7539 70.8995C48.7539 72.048 48.3643 72.9445 47.585 73.589C46.8115 74.2335 45.7275 74.5558 44.333 74.5558H39.8506V61.7062ZM41.3447 67.2081H43.8057C44.8604 67.2081 45.6191 67.0441 46.082 66.7159C46.5449 66.382 46.7764 65.8224 46.7764 65.0372C46.7764 64.3165 46.5186 63.798 46.0029 63.4816C45.4873 63.1593 44.667 62.9982 43.542 62.9982H41.3447V67.2081ZM41.3447 68.4738V73.2814H44.0254C45.0625 73.2814 45.8418 73.0822 46.3633 72.6837C46.8906 72.2794 47.1543 71.6495 47.1543 70.7941C47.1543 69.9972 46.8848 69.4113 46.3457 69.0363C45.8125 68.6613 44.998 68.4738 43.9023 68.4738H41.3447ZM59.6172 69.7306C59.6172 71.3009 59.2217 72.5284 58.4307 73.4132C57.6396 74.2921 56.5469 74.7316 55.1523 74.7316C54.291 74.7316 53.5264 74.5294 52.8584 74.1251C52.1904 73.7208 51.6748 73.1407 51.3115 72.3849C50.9482 71.629 50.7666 70.7443 50.7666 69.7306C50.7666 68.1603 51.1592 66.9386 51.9443 66.0656C52.7295 65.1866 53.8193 64.7472 55.2139 64.7472C56.5615 64.7472 57.6309 65.1954 58.4219 66.0919C59.2188 66.9884 59.6172 68.2013 59.6172 69.7306ZM52.2783 69.7306C52.2783 70.9611 52.5244 71.8986 53.0166 72.5431C53.5088 73.1876 54.2324 73.5099 55.1875 73.5099C56.1426 73.5099 56.8662 73.1906 57.3584 72.5519C57.8564 71.9073 58.1055 70.9669 58.1055 69.7306C58.1055 68.506 57.8564 67.5773 57.3584 66.9445C56.8662 66.3058 56.1367 65.9865 55.1699 65.9865C54.2148 65.9865 53.4941 66.2999 53.0078 66.9269C52.5215 67.5538 52.2783 68.4884 52.2783 69.7306ZM68.1074 74.5558L67.8174 73.1847H67.7471C67.2666 73.7882 66.7861 74.1984 66.3057 74.4152C65.8311 74.6261 65.2363 74.7316 64.5215 74.7316C63.5664 74.7316 62.8164 74.4855 62.2715 73.9933C61.7324 73.5011 61.4629 72.8009 61.4629 71.8927C61.4629 69.9474 63.0186 68.9279 66.1299 68.8341L67.7646 68.7814V68.1837C67.7646 67.4279 67.6006 66.8712 67.2725 66.5138C66.9502 66.1505 66.4316 65.9689 65.7168 65.9689C64.9141 65.9689 64.0059 66.215 62.9922 66.7072L62.5439 65.5909C63.0186 65.3331 63.5371 65.131 64.0996 64.9845C64.668 64.838 65.2363 64.7648 65.8047 64.7648C66.9531 64.7648 67.8027 65.0197 68.3535 65.5294C68.9102 66.0392 69.1885 66.8566 69.1885 67.9816V74.5558H68.1074ZM64.8115 73.5275C65.7197 73.5275 66.4316 73.2784 66.9473 72.7804C67.4688 72.2823 67.7295 71.5851 67.7295 70.6886V69.8185L66.2705 69.88C65.1104 69.921 64.2725 70.1027 63.7568 70.4249C63.2471 70.7413 62.9922 71.2365 62.9922 71.9103C62.9922 72.4376 63.1504 72.839 63.4668 73.1144C63.7891 73.3898 64.2373 73.5275 64.8115 73.5275ZM76.5977 64.7472C77.0254 64.7472 77.4092 64.7823 77.749 64.8527L77.5469 66.2062C77.1484 66.1183 76.7969 66.0743 76.4922 66.0743C75.7129 66.0743 75.0449 66.3907 74.4883 67.0236C73.9375 67.6564 73.6621 68.4445 73.6621 69.3878V74.5558H72.2031V64.923H73.4072L73.5742 66.7072H73.6445C74.002 66.0802 74.4326 65.5968 74.9365 65.257C75.4404 64.9171 75.9941 64.7472 76.5977 64.7472ZM86.1074 73.2638H86.0283C85.3545 74.2423 84.3467 74.7316 83.0049 74.7316C81.7451 74.7316 80.7637 74.3009 80.0605 73.4396C79.3633 72.5782 79.0146 71.3536 79.0146 69.7657C79.0146 68.1779 79.3662 66.9445 80.0693 66.0656C80.7725 65.1866 81.751 64.7472 83.0049 64.7472C84.3115 64.7472 85.3135 65.2218 86.0107 66.171H86.125L86.0635 65.4767L86.0283 64.7999V60.88H87.4873V74.5558H86.3008L86.1074 73.2638ZM83.1895 73.5099C84.1855 73.5099 84.9062 73.2404 85.3516 72.7013C85.8027 72.1564 86.0283 71.2804 86.0283 70.0734V69.7657C86.0283 68.4005 85.7998 67.4279 85.3428 66.8478C84.8916 66.2618 84.168 65.9689 83.1719 65.9689C82.3164 65.9689 81.6602 66.3029 81.2031 66.9708C80.752 67.6329 80.5264 68.5704 80.5264 69.7833C80.5264 71.0138 80.752 71.9425 81.2031 72.5695C81.6543 73.1964 82.3164 73.5099 83.1895 73.5099ZM96.8037 71.9279C96.8037 72.8243 96.4697 73.5157 95.8018 74.0021C95.1338 74.4884 94.1963 74.7316 92.9893 74.7316C91.7119 74.7316 90.7158 74.5294 90.001 74.1251V72.7716C90.4639 73.006 90.959 73.1906 91.4863 73.3253C92.0195 73.4601 92.5322 73.5275 93.0244 73.5275C93.7861 73.5275 94.3721 73.4073 94.7822 73.1671C95.1924 72.921 95.3975 72.549 95.3975 72.0509C95.3975 71.6759 95.2334 71.3566 94.9053 71.0929C94.583 70.8234 93.9502 70.507 93.0068 70.1437C92.1104 69.8097 91.4717 69.5197 91.0908 69.2736C90.7158 69.0216 90.4346 68.7374 90.2471 68.421C90.0654 68.1046 89.9746 67.7267 89.9746 67.2872C89.9746 66.5021 90.2939 65.8839 90.9326 65.4327C91.5713 64.9757 92.4473 64.7472 93.5605 64.7472C94.5977 64.7472 95.6113 64.9581 96.6016 65.38L96.083 66.5665C95.1162 66.1681 94.2402 65.9689 93.4551 65.9689C92.7637 65.9689 92.2422 66.0773 91.8906 66.2941C91.5391 66.5109 91.3633 66.8097 91.3633 67.1906C91.3633 67.4484 91.4277 67.6681 91.5566 67.8497C91.6914 68.0314 91.9053 68.2042 92.1982 68.3683C92.4912 68.5323 93.0537 68.7697 93.8857 69.0802C95.0283 69.4962 95.7988 69.9152 96.1973 70.337C96.6016 70.7589 96.8037 71.2892 96.8037 71.9279Z" fill="#FAFDCB"/>
<path fill-rule="evenodd" clip-rule="evenodd" d="M34.4843 4.83441V32.0924C34.4843 37.0629 38.5137 41.0924 43.4843 41.0924H54.4843C59.4548 41.0924 63.4843 37.0629 63.4843 32.0924V4.83441H34.4843Z" stroke="#FAFDCB" stroke-width="2" stroke-linecap="round"/>
<path d="M36.9009 50.7611H61.0675" stroke="#FAFDCB" stroke-width="2" stroke-linecap="round"/>
<path d="M48.9843 41.0923V50.7611" stroke="#FAFDCB" stroke-width="2"/>
<path fill-rule="evenodd" clip-rule="evenodd" d="M34.4843 12.086H32.0692C28.0642 12.086 24.8176 15.3326 24.8176 19.3376V19.3376C24.8176 23.3425 28.0642 26.5892 32.0692 26.5892H34.4843V12.086Z" stroke="#FAFDCB" stroke-width="2" stroke-linecap="round"/>
<path fill-rule="evenodd" clip-rule="evenodd" d="M63.4843 26.5892H65.8993C69.9043 26.5892 73.1509 23.3425 73.1509 19.3376V19.3376C73.1509 15.3326 69.9043 12.086 65.8993 12.086H63.4843V26.5892Z" stroke="#FAFDCB" stroke-width="2" stroke-linecap="round"/>
</svg>
