<svg width="311" height="311" viewBox="0 0 311 311" fill="none" xmlns="http://www.w3.org/2000/svg">
<circle cx="155.5" cy="155.877" r="155" fill="#28C3D4" fill-opacity="0.3"/>
<circle cx="155" cy="156.32" r="145" fill="#28C3D4" fill-opacity="0.5"/>
<circle cx="155" cy="156.32" r="135" fill="#28C3D4" fill-opacity="0.7"/>
<circle cx="155" cy="156.32" r="125" fill="#28C3D4"/>
<path d="M53.9551 155.877H51.4648V134.461H63.4033V136.673H53.9551V144.51H62.832V146.722H53.9551V155.877ZM69.0283 155.877H66.5967V139.823H69.0283V155.877ZM66.3916 135.472C66.3916 134.915 66.5283 134.51 66.8018 134.256C67.0752 133.993 67.417 133.861 67.8271 133.861C68.2178 133.861 68.5547 133.993 68.8379 134.256C69.1211 134.52 69.2627 134.925 69.2627 135.472C69.2627 136.019 69.1211 136.429 68.8379 136.703C68.5547 136.966 68.2178 137.098 67.8271 137.098C67.417 137.098 67.0752 136.966 66.8018 136.703C66.5283 136.429 66.3916 136.019 66.3916 135.472ZM85.1709 155.877V145.492C85.1709 144.183 84.873 143.206 84.2773 142.562C83.6816 141.917 82.749 141.595 81.4795 141.595C79.7998 141.595 78.5693 142.049 77.7881 142.957C77.0068 143.866 76.6162 145.365 76.6162 147.454V155.877H74.1846V139.823H76.1621L76.5576 142.02H76.6748C77.1729 141.229 77.8711 140.619 78.7695 140.189C79.668 139.749 80.6689 139.53 81.7725 139.53C83.7061 139.53 85.1611 139.998 86.1377 140.936C87.1143 141.864 87.6025 143.353 87.6025 145.404V155.877H85.1709ZM103.54 153.724H103.408C102.285 155.355 100.605 156.17 98.3691 156.17C96.2695 156.17 94.6338 155.453 93.4619 154.017C92.2998 152.581 91.7188 150.54 91.7188 147.894C91.7188 145.247 92.3047 143.192 93.4766 141.727C94.6484 140.262 96.2793 139.53 98.3691 139.53C100.547 139.53 102.217 140.321 103.379 141.903H103.569L103.467 140.745L103.408 139.618V133.084H105.84V155.877H103.862L103.54 153.724ZM98.6768 154.134C100.337 154.134 101.538 153.685 102.28 152.787C103.032 151.878 103.408 150.418 103.408 148.407V147.894C103.408 145.619 103.027 143.997 102.266 143.031C101.514 142.054 100.308 141.566 98.6475 141.566C97.2217 141.566 96.1279 142.122 95.3662 143.236C94.6143 144.339 94.2383 145.902 94.2383 147.923C94.2383 149.974 94.6143 151.522 95.3662 152.567C96.1182 153.612 97.2217 154.134 98.6768 154.134ZM116.255 139.823H118.862L122.378 148.978C123.149 151.068 123.628 152.577 123.813 153.504H123.931C124.058 153.006 124.321 152.157 124.722 150.955C125.132 149.745 126.46 146.034 128.706 139.823H131.313L124.414 158.104C123.73 159.911 122.93 161.19 122.012 161.942C121.104 162.703 119.985 163.084 118.657 163.084C117.915 163.084 117.183 163.001 116.46 162.835V160.887C116.997 161.004 117.598 161.063 118.262 161.063C119.932 161.063 121.123 160.125 121.836 158.25L122.729 155.965L116.255 139.823ZM147.778 147.835C147.778 150.453 147.119 152.498 145.801 153.973C144.482 155.438 142.661 156.17 140.337 156.17C138.901 156.17 137.627 155.833 136.514 155.16C135.4 154.486 134.541 153.519 133.936 152.259C133.33 150.999 133.027 149.525 133.027 147.835C133.027 145.218 133.682 143.182 134.99 141.727C136.299 140.262 138.115 139.53 140.439 139.53C142.686 139.53 144.468 140.277 145.786 141.771C147.114 143.265 147.778 145.287 147.778 147.835ZM135.547 147.835C135.547 149.886 135.957 151.449 136.777 152.523C137.598 153.597 138.804 154.134 140.396 154.134C141.987 154.134 143.193 153.602 144.014 152.537C144.844 151.463 145.259 149.896 145.259 147.835C145.259 145.794 144.844 144.246 144.014 143.192C143.193 142.127 141.978 141.595 140.366 141.595C138.774 141.595 137.573 142.118 136.763 143.162C135.952 144.207 135.547 145.765 135.547 147.835ZM154.341 139.823V150.238C154.341 151.546 154.639 152.523 155.234 153.167C155.83 153.812 156.763 154.134 158.032 154.134C159.712 154.134 160.938 153.675 161.709 152.757C162.49 151.839 162.881 150.34 162.881 148.26V139.823H165.312V155.877H163.306L162.954 153.724H162.822C162.324 154.515 161.631 155.12 160.742 155.54C159.863 155.96 158.857 156.17 157.725 156.17C155.771 156.17 154.307 155.706 153.33 154.779C152.363 153.851 151.88 152.367 151.88 150.326V139.823H154.341ZM177.808 139.53C178.521 139.53 179.16 139.588 179.727 139.705L179.39 141.961C178.726 141.815 178.14 141.742 177.632 141.742C176.333 141.742 175.22 142.269 174.292 143.324C173.374 144.378 172.915 145.692 172.915 147.264V155.877H170.483V139.823H172.49L172.769 142.796H172.886C173.481 141.751 174.199 140.946 175.039 140.379C175.879 139.813 176.802 139.53 177.808 139.53ZM192.954 155.877H190.522V139.823H192.954V155.877ZM190.317 135.472C190.317 134.915 190.454 134.51 190.728 134.256C191.001 133.993 191.343 133.861 191.753 133.861C192.144 133.861 192.48 133.993 192.764 134.256C193.047 134.52 193.188 134.925 193.188 135.472C193.188 136.019 193.047 136.429 192.764 136.703C192.48 136.966 192.144 137.098 191.753 137.098C191.343 137.098 191.001 136.966 190.728 136.703C190.454 136.429 190.317 136.019 190.317 135.472ZM209.097 155.877V145.492C209.097 144.183 208.799 143.206 208.203 142.562C207.607 141.917 206.675 141.595 205.405 141.595C203.726 141.595 202.495 142.049 201.714 142.957C200.933 143.866 200.542 145.365 200.542 147.454V155.877H198.11V139.823H200.088L200.483 142.02H200.601C201.099 141.229 201.797 140.619 202.695 140.189C203.594 139.749 204.595 139.53 205.698 139.53C207.632 139.53 209.087 139.998 210.063 140.936C211.04 141.864 211.528 143.353 211.528 145.404V155.877H209.097ZM227.524 155.877V145.492C227.524 144.183 227.227 143.206 226.631 142.562C226.035 141.917 225.103 141.595 223.833 141.595C222.153 141.595 220.923 142.049 220.142 142.957C219.36 143.866 218.97 145.365 218.97 147.454V155.877H216.538V139.823H218.516L218.911 142.02H219.028C219.526 141.229 220.225 140.619 221.123 140.189C222.021 139.749 223.022 139.53 224.126 139.53C226.06 139.53 227.515 139.998 228.491 140.936C229.468 141.864 229.956 143.353 229.956 145.404V155.877H227.524ZM241.748 156.17C239.375 156.17 237.5 155.448 236.123 154.002C234.756 152.557 234.072 150.55 234.072 147.982C234.072 145.394 234.707 143.338 235.977 141.815C237.256 140.291 238.97 139.53 241.118 139.53C243.13 139.53 244.722 140.194 245.894 141.522C247.065 142.84 247.651 144.583 247.651 146.751V148.289H236.592C236.641 150.174 237.114 151.605 238.013 152.581C238.921 153.558 240.195 154.046 241.836 154.046C243.564 154.046 245.273 153.685 246.963 152.962V155.13C246.104 155.501 245.288 155.765 244.517 155.921C243.755 156.087 242.832 156.17 241.748 156.17ZM241.089 141.566C239.8 141.566 238.77 141.986 237.998 142.826C237.236 143.665 236.787 144.828 236.65 146.312H245.044C245.044 144.779 244.702 143.607 244.019 142.796C243.335 141.976 242.358 141.566 241.089 141.566ZM259.136 139.53C259.849 139.53 260.488 139.588 261.055 139.705L260.718 141.961C260.054 141.815 259.468 141.742 258.96 141.742C257.661 141.742 256.548 142.269 255.62 143.324C254.702 144.378 254.243 145.692 254.243 147.264V155.877H251.812V139.823H253.818L254.097 142.796H254.214C254.81 141.751 255.527 140.946 256.367 140.379C257.207 139.813 258.13 139.53 259.136 139.53ZM123.433 197.17C122.388 197.17 121.431 196.98 120.562 196.599C119.702 196.208 118.979 195.613 118.394 194.812H118.218C118.335 195.749 118.394 196.638 118.394 197.478V204.084H115.962V180.823H117.939L118.276 183.02H118.394C119.019 182.141 119.746 181.506 120.576 181.116C121.406 180.725 122.358 180.53 123.433 180.53C125.562 180.53 127.202 181.257 128.354 182.712C129.517 184.167 130.098 186.208 130.098 188.835C130.098 191.472 129.507 193.523 128.325 194.988C127.153 196.443 125.522 197.17 123.433 197.17ZM123.081 182.595C121.44 182.595 120.254 183.049 119.521 183.957C118.789 184.866 118.413 186.311 118.394 188.293V188.835C118.394 191.091 118.77 192.707 119.521 193.684C120.273 194.651 121.479 195.134 123.14 195.134C124.526 195.134 125.61 194.573 126.392 193.45C127.183 192.327 127.578 190.779 127.578 188.806C127.578 186.804 127.183 185.271 126.392 184.206C125.61 183.132 124.507 182.595 123.081 182.595ZM141.143 197.17C138.77 197.17 136.895 196.448 135.518 195.002C134.15 193.557 133.467 191.55 133.467 188.982C133.467 186.394 134.102 184.338 135.371 182.815C136.65 181.291 138.364 180.53 140.513 180.53C142.524 180.53 144.116 181.194 145.288 182.522C146.46 183.84 147.046 185.583 147.046 187.751V189.289H135.986C136.035 191.174 136.509 192.605 137.407 193.581C138.315 194.558 139.59 195.046 141.23 195.046C142.959 195.046 144.668 194.685 146.357 193.962V196.13C145.498 196.501 144.683 196.765 143.911 196.921C143.149 197.087 142.227 197.17 141.143 197.17ZM140.483 182.566C139.194 182.566 138.164 182.986 137.393 183.826C136.631 184.665 136.182 185.828 136.045 187.312H144.438C144.438 185.779 144.097 184.607 143.413 183.796C142.729 182.976 141.753 182.566 140.483 182.566ZM157.988 197.17C155.615 197.17 153.74 196.448 152.363 195.002C150.996 193.557 150.312 191.55 150.312 188.982C150.312 186.394 150.947 184.338 152.217 182.815C153.496 181.291 155.21 180.53 157.358 180.53C159.37 180.53 160.962 181.194 162.134 182.522C163.306 183.84 163.892 185.583 163.892 187.751V189.289H152.832C152.881 191.174 153.354 192.605 154.253 193.581C155.161 194.558 156.436 195.046 158.076 195.046C159.805 195.046 161.514 194.685 163.203 193.962V196.13C162.344 196.501 161.528 196.765 160.757 196.921C159.995 197.087 159.072 197.17 157.988 197.17ZM157.329 182.566C156.04 182.566 155.01 182.986 154.238 183.826C153.477 184.665 153.027 185.828 152.891 187.312H161.284C161.284 185.779 160.942 184.607 160.259 183.796C159.575 182.976 158.599 182.566 157.329 182.566ZM174.468 197.17C172.144 197.17 170.342 196.457 169.062 195.032C167.793 193.596 167.158 191.57 167.158 188.953C167.158 186.267 167.803 184.192 169.092 182.727C170.391 181.262 172.236 180.53 174.629 180.53C175.4 180.53 176.172 180.613 176.943 180.779C177.715 180.945 178.32 181.14 178.76 181.365L178.013 183.43C177.476 183.215 176.89 183.039 176.255 182.903C175.62 182.756 175.059 182.683 174.57 182.683C171.309 182.683 169.678 184.763 169.678 188.923C169.678 190.896 170.073 192.41 170.864 193.464C171.665 194.519 172.847 195.046 174.409 195.046C175.747 195.046 177.119 194.758 178.525 194.182V196.335C177.451 196.892 176.099 197.17 174.468 197.17ZM189.131 197.17C186.758 197.17 184.883 196.448 183.506 195.002C182.139 193.557 181.455 191.55 181.455 188.982C181.455 186.394 182.09 184.338 183.359 182.815C184.639 181.291 186.353 180.53 188.501 180.53C190.513 180.53 192.104 181.194 193.276 182.522C194.448 183.84 195.034 185.583 195.034 187.751V189.289H183.975C184.023 191.174 184.497 192.605 185.396 193.581C186.304 194.558 187.578 195.046 189.219 195.046C190.947 195.046 192.656 194.685 194.346 193.962V196.13C193.486 196.501 192.671 196.765 191.899 196.921C191.138 197.087 190.215 197.17 189.131 197.17ZM188.472 182.566C187.183 182.566 186.152 182.986 185.381 183.826C184.619 184.665 184.17 185.828 184.033 187.312H192.427C192.427 185.779 192.085 184.607 191.401 183.796C190.718 182.976 189.741 182.566 188.472 182.566Z" fill="white"/>
</svg>
