<svg width="56" height="80" viewBox="0 0 56 80" fill="none" xmlns="http://www.w3.org/2000/svg">
<path d="M17.1445 74.3087H15.6504V62.7862H11.5811V61.459H21.2139V62.7862H17.1445V74.3087ZM24.3955 74.3087H22.9365V64.6758H24.3955V74.3087ZM22.8135 62.0655C22.8135 61.7315 22.8955 61.4883 23.0596 61.336C23.2236 61.1778 23.4287 61.0987 23.6748 61.0987C23.9092 61.0987 24.1113 61.1778 24.2812 61.336C24.4512 61.4942 24.5361 61.7374 24.5361 62.0655C24.5361 62.3936 24.4512 62.6397 24.2812 62.8038C24.1113 62.962 23.9092 63.0411 23.6748 63.0411C23.4287 63.0411 23.2236 62.962 23.0596 62.8038C22.8955 62.6397 22.8135 62.3936 22.8135 62.0655ZM31.9717 74.4844C31.3447 74.4844 30.7705 74.3702 30.249 74.1417C29.7334 73.9073 29.2998 73.5499 28.9482 73.0694H28.8428C28.9131 73.6319 28.9482 74.1651 28.9482 74.669V78.6329H27.4893V64.6758H28.6758L28.8779 65.9942H28.9482C29.3232 65.4669 29.7598 65.086 30.2578 64.8516C30.7559 64.6172 31.3271 64.5001 31.9717 64.5001C33.249 64.5001 34.2334 64.9366 34.9248 65.8096C35.6221 66.6827 35.9707 67.9073 35.9707 69.4835C35.9707 71.0655 35.6162 72.296 34.9072 73.1749C34.2041 74.0479 33.2256 74.4844 31.9717 74.4844ZM31.7607 65.7393C30.7764 65.7393 30.0645 66.0118 29.625 66.5567C29.1855 67.1016 28.96 67.9688 28.9482 69.1583V69.4835C28.9482 70.837 29.1738 71.8067 29.625 72.3926C30.0762 72.9727 30.7998 73.2628 31.7959 73.2628C32.6279 73.2628 33.2783 72.9258 33.7471 72.252C34.2217 71.5782 34.459 70.6495 34.459 69.4659C34.459 68.2647 34.2217 67.3448 33.7471 66.7061C33.2783 66.0616 32.6162 65.7393 31.7607 65.7393ZM44.7422 71.6807C44.7422 72.5772 44.4082 73.2686 43.7402 73.7549C43.0723 74.2413 42.1348 74.4844 40.9277 74.4844C39.6504 74.4844 38.6543 74.2823 37.9395 73.878V72.5245C38.4023 72.7589 38.8975 72.9434 39.4248 73.0782C39.958 73.213 40.4707 73.2803 40.9629 73.2803C41.7246 73.2803 42.3105 73.1602 42.7207 72.92C43.1309 72.6739 43.3359 72.3018 43.3359 71.8038C43.3359 71.4288 43.1719 71.1094 42.8438 70.8458C42.5215 70.5762 41.8887 70.2598 40.9453 69.8965C40.0488 69.5626 39.4102 69.2725 39.0293 69.0264C38.6543 68.7745 38.373 68.4903 38.1855 68.1739C38.0039 67.8575 37.9131 67.4796 37.9131 67.0401C37.9131 66.2549 38.2324 65.6368 38.8711 65.1856C39.5098 64.7286 40.3857 64.5001 41.499 64.5001C42.5361 64.5001 43.5498 64.711 44.54 65.1329L44.0215 66.3194C43.0547 65.921 42.1787 65.7217 41.3936 65.7217C40.7021 65.7217 40.1807 65.8301 39.8291 66.0469C39.4775 66.2637 39.3018 66.5626 39.3018 66.9434C39.3018 67.2012 39.3662 67.421 39.4951 67.6026C39.6299 67.7842 39.8438 67.9571 40.1367 68.1212C40.4297 68.2852 40.9922 68.5225 41.8242 68.8331C42.9668 69.2491 43.7373 69.668 44.1357 70.0899C44.54 70.5118 44.7422 71.0421 44.7422 71.6807Z" fill="#FAFDCB"/>
<path fill-rule="evenodd" clip-rule="evenodd" d="M37.3333 27.6543C35 29.9589 35 34.5679 35 36.8724C35 39.177 32.6667 39.177 32.6667 39.177H23.3333C23.3333 39.177 21 39.177 21 36.8724C21 34.5679 21 29.9589 18.6667 27.6543C13.2392 22.2939 12.6332 14.0588 18.1005 8.65895C23.5679 3.25911 32.4322 3.25911 37.8995 8.65895C43.3668 14.0588 42.9493 22.1077 37.3333 27.6543Z" stroke="#FAFDCB" stroke-width="2" stroke-linecap="round"/>
<path d="M23.3334 48.395H32.6667" stroke="#FAFDCB" stroke-width="2" stroke-linecap="round"/>
</svg>
