<svg width="57" height="80" viewBox="0 0 57 80" fill="none" xmlns="http://www.w3.org/2000/svg">
<path d="M13.0625 44.9383C13.0625 44.9383 21.375 41.4815 23.75 39.177C26.125 36.8724 19 36.8724 19 25.3498C19 13.8272 28.5 13.8272 28.5 13.8272C28.5 13.8272 38 13.8272 38 25.3498C38 36.8724 30.875 36.8724 33.25 39.177C35.625 41.4815 43.9375 44.9383 43.9375 44.9383" stroke="#FAFDCB" stroke-width="2" stroke-linecap="round"/>
<path fill-rule="evenodd" clip-rule="evenodd" d="M28.5 50.6996C41.6168 50.6996 52.25 40.3819 52.25 27.6543C52.25 14.9268 41.6168 4.60906 28.5 4.60906C15.3832 4.60906 4.75 14.9268 4.75 27.6543C4.75 40.3819 15.3832 50.6996 28.5 50.6996Z" stroke="#FAFDCB" stroke-width="2"/>
<path d="M20.8877 61.459V69.7735C20.8877 71.2383 20.4453 72.3897 19.5605 73.2276C18.6758 74.0655 17.46 74.4844 15.9131 74.4844C14.3662 74.4844 13.168 74.0625 12.3184 73.2188C11.4746 72.375 11.0527 71.2149 11.0527 69.7383V61.459H12.5469V69.8438C12.5469 70.9161 12.8398 71.7393 13.4258 72.3135C14.0117 72.8877 14.873 73.1749 16.0098 73.1749C17.0938 73.1749 17.9287 72.8877 18.5146 72.3135C19.1006 71.7334 19.3936 70.9043 19.3936 69.8262V61.459H20.8877ZM30.292 71.6807C30.292 72.5772 29.958 73.2686 29.29 73.7549C28.6221 74.2413 27.6846 74.4844 26.4775 74.4844C25.2002 74.4844 24.2041 74.2823 23.4893 73.878V72.5245C23.9521 72.7588 24.4473 72.9434 24.9746 73.0782C25.5078 73.2129 26.0205 73.2803 26.5127 73.2803C27.2744 73.2803 27.8604 73.1602 28.2705 72.92C28.6807 72.6739 28.8857 72.3018 28.8857 71.8038C28.8857 71.4288 28.7217 71.1094 28.3936 70.8457C28.0713 70.5762 27.4385 70.2598 26.4951 69.8965C25.5986 69.5625 24.96 69.2725 24.5791 69.0264C24.2041 68.7745 23.9229 68.4903 23.7354 68.1739C23.5537 67.8575 23.4629 67.4795 23.4629 67.0401C23.4629 66.2549 23.7822 65.6368 24.4209 65.1856C25.0596 64.7286 25.9355 64.5 27.0488 64.5C28.0859 64.5 29.0996 64.711 30.0898 65.1329L29.5713 66.3194C28.6045 65.9209 27.7285 65.7217 26.9434 65.7217C26.252 65.7217 25.7305 65.8301 25.3789 66.0469C25.0273 66.2637 24.8516 66.5625 24.8516 66.9434C24.8516 67.2012 24.916 67.4209 25.0449 67.6026C25.1797 67.7842 25.3936 67.9571 25.6865 68.1211C25.9795 68.2852 26.542 68.5225 27.374 68.8331C28.5166 69.2491 29.2871 69.668 29.6855 70.0899C30.0898 70.5118 30.292 71.042 30.292 71.6807ZM36.7432 74.4844C35.3193 74.4844 34.1943 74.0508 33.3682 73.1836C32.5479 72.3165 32.1377 71.1124 32.1377 69.5713C32.1377 68.0186 32.5186 66.7852 33.2803 65.8711C34.0479 64.9571 35.0762 64.5 36.3652 64.5C37.5723 64.5 38.5273 64.8985 39.2305 65.6954C39.9336 66.4864 40.2852 67.5323 40.2852 68.8331V69.7559H33.6494C33.6787 70.8868 33.9629 71.7452 34.502 72.3311C35.0469 72.917 35.8115 73.21 36.7959 73.21C37.833 73.21 38.8584 72.9932 39.8721 72.5596V73.8604C39.3564 74.0831 38.8672 74.2413 38.4043 74.335C37.9473 74.4346 37.3936 74.4844 36.7432 74.4844ZM36.3477 65.7217C35.5742 65.7217 34.9561 65.9737 34.4932 66.4776C34.0361 66.9815 33.7666 67.6788 33.6846 68.5694H38.7207C38.7207 67.6495 38.5156 66.9463 38.1055 66.46C37.6953 65.9678 37.1094 65.7217 36.3477 65.7217ZM47.1758 64.5C47.6035 64.5 47.9873 64.5352 48.3271 64.6055L48.125 65.959C47.7266 65.8711 47.375 65.8272 47.0703 65.8272C46.291 65.8272 45.623 66.1436 45.0664 66.7764C44.5156 67.4092 44.2402 68.1973 44.2402 69.1407V74.3086H42.7812V64.6758H43.9854L44.1523 66.46H44.2227C44.5801 65.8331 45.0107 65.3497 45.5146 65.0098C46.0186 64.67 46.5723 64.5 47.1758 64.5Z" fill="#FAFDCB"/>
</svg>
