<svg width="106" height="38" viewBox="0 0 106 38" fill="none" xmlns="http://www.w3.org/2000/svg">
<path d="M9.48023 29C8.54423 29 7.92023 28.508 7.60823 27.524L0.372234 3.47599C0.132234 2.68399 0.144234 2.05999 0.408234 1.60399C0.696234 1.12399 1.15223 0.883991 1.77623 0.883991C2.18423 0.883991 2.55623 1.00399 2.89223 1.24399C3.22823 1.45999 3.46823 1.80799 3.61223 2.28799L9.51624 22.808L14.9522 2.50399C15.0482 2.14399 15.2642 1.84399 15.6002 1.60399C15.9362 1.36399 16.3202 1.24399 16.7522 1.24399C17.1362 1.24399 17.4962 1.35199 17.8322 1.56799C18.1922 1.75999 18.4202 2.05999 18.5162 2.46799L24.0242 22.952L30.0002 2.10799C30.2402 1.29199 30.8522 0.883991 31.8362 0.883991C32.5082 0.883991 32.9402 1.14799 33.1322 1.67599C33.3242 2.17999 33.3242 2.77999 33.1322 3.47599L25.8962 27.488C25.7282 27.944 25.4762 28.316 25.1402 28.604C24.8282 28.868 24.4562 29 24.0242 29C23.5682 29 23.1722 28.856 22.8362 28.568C22.5242 28.28 22.2962 27.932 22.1522 27.524L16.7882 6.78799L11.3522 27.488C11.1842 27.944 10.9322 28.316 10.5962 28.604C10.2842 28.868 9.91223 29 9.48023 29Z" fill="#FAFDCB"/>
<path d="M33.6421 29C32.9701 29 32.4541 28.712 32.0941 28.136C31.7341 27.56 31.6981 26.948 31.9861 26.3L42.1021 2.14399C42.4621 1.30399 43.0501 0.883991 43.8661 0.883991C44.7301 0.883991 45.3181 1.30399 45.6301 2.14399L55.7821 26.372C56.0461 27.044 55.9981 27.656 55.6381 28.208C55.3021 28.736 54.7861 29 54.0901 29C53.7301 29 53.3821 28.904 53.0461 28.712C52.7341 28.496 52.5061 28.208 52.3621 27.848L50.3461 22.808H37.4221L35.3701 27.848C35.2021 28.232 34.9501 28.52 34.6141 28.712C34.3021 28.904 33.9781 29 33.6421 29ZM38.6821 19.712H49.0861L43.9381 6.89599L38.6821 19.712Z" fill="#FAFDCB"/>
<path d="M61.5466 37.424C61.0186 37.424 60.5746 37.244 60.2146 36.884C59.8786 36.548 59.7106 36.116 59.7106 35.588L59.9282 19.172C59.9522 17.276 60.7678 15.9436 61.6318 14.4316C62.4958 12.9196 63.3088 11.4991 64.7968 10.6351L64.0666 15.716C63.5146 16.724 62.944 17.876 62.944 19.172C62.944 20.444 63.2828 21.8278 63.8348 22.8598C64.3868 23.8678 65.1754 24.6392 66.1354 25.2392C67.1194 25.8152 68.4106 26.128 69.6106 26.128C70.8346 26.128 71.9266 25.955 72.8866 25.379C73.8466 24.779 74.9681 24.0015 75.5201 22.9935C76.0961 21.9615 76.584 20.444 76.584 19.172C76.584 17.876 75.9306 16.5241 75.3546 15.5161L74.6866 10.496C76.1746 11.36 77.0356 12.8631 77.8996 14.3751C78.7876 15.8871 79.3633 17.276 79.3633 19.172C79.3633 21.068 78.9178 22.772 78.1018 24.284C77.3098 25.772 76.1897 26.711 74.7977 27.599C73.4057 28.463 72.0826 29.144 70.3306 29.144C68.9146 29.144 67.4835 28.9791 66.2835 28.4031C65.1075 27.8031 64.2226 26.876 63.3826 25.868V35.588C63.3826 36.116 63.2146 36.548 62.8786 36.884C62.5426 37.244 62.0986 37.424 61.5466 37.424Z" fill="#FAFDCB"/>
<path d="M86.7306 37.4047C86.2026 37.4047 85.7586 37.2247 85.3986 36.8647C85.0626 36.5287 84.8946 36.0967 84.8946 35.5687L85.1121 19.1527C85.1361 17.2567 85.9517 15.9243 86.8157 14.4123C87.6797 12.9003 88.4928 11.4798 89.9808 10.6158L89.2506 15.6967C88.6986 16.7047 88.1279 17.8567 88.1279 19.1527C88.1279 20.4247 88.4668 21.8085 89.0188 22.8405C89.5708 23.8485 90.3594 24.6199 91.3194 25.2199C92.3034 25.7959 93.5946 26.1087 94.7946 26.1087C96.0186 26.1087 97.1106 25.9357 98.0706 25.3597C99.0306 24.7597 100.152 23.9821 100.704 22.9741C101.28 21.9421 101.768 20.4247 101.768 19.1527C101.768 17.8567 101.115 16.5047 100.539 15.4967L99.8706 10.4767C101.359 11.3407 102.22 12.8438 103.084 14.3558C103.972 15.8678 104.547 17.2567 104.547 19.1527C104.547 21.0487 104.102 22.7527 103.286 24.2647C102.494 25.7527 101.374 26.6917 99.9816 27.5797C98.5896 28.4437 97.2666 29.1247 95.5146 29.1247C94.0986 29.1247 92.6675 28.9598 91.4675 28.3838C90.2915 27.7838 89.4066 26.8567 88.5666 25.8487V35.5687C88.5666 36.0967 88.3986 36.5287 88.0626 36.8647C87.7266 37.2247 87.2826 37.4047 86.7306 37.4047Z" fill="#FAFDCB"/>
<path d="M69.9952 27.6205C67.8013 27.6205 65.6973 26.749 64.1461 25.1977C62.5948 23.6464 61.7233 21.5424 61.7233 19.3485C61.7233 15.7275 64.5254 12.8313 66.9894 10.177L69.9952 6.94064L73.001 10.177C75.465 12.8323 78.2671 15.7285 78.2671 19.3485C78.2671 21.5424 77.3956 23.6464 75.8443 25.1977C74.293 26.749 72.189 27.6205 69.9952 27.6205V27.6205Z" stroke="#FAFDCB" stroke-width="3.5" stroke-linecap="round" stroke-linejoin="round"/>
<path d="M95.3325 27.6205C93.1386 27.6205 91.0346 26.749 89.4833 25.1977C87.9321 23.6464 87.0605 21.5424 87.0605 19.3485C87.0605 15.7275 89.8627 12.8313 92.3267 10.177L95.3325 6.94064L98.3383 10.177C100.802 12.8323 103.604 15.7285 103.604 19.3485C103.604 21.5424 102.733 23.6464 101.182 25.1977C99.6303 26.749 97.5263 27.6205 95.3325 27.6205V27.6205Z" stroke="#FAFDCB" stroke-width="3.5" stroke-linecap="round" stroke-linejoin="round"/>
</svg>
