<svg width="311" height="310" viewBox="0 0 311 310" fill="none" xmlns="http://www.w3.org/2000/svg">
<circle cx="155.5" cy="155" r="155" fill="#FAFDCB" fill-opacity="0.3"/>
<circle cx="155" cy="155.443" r="145" fill="#FAFDCB" fill-opacity="0.5"/>
<circle cx="155" cy="155.443" r="135" fill="#FAFDCB" fill-opacity="0.7"/>
<circle cx="155" cy="155.443" r="125" fill="#FAFDCB"/>
<path d="M93.667 155H91.2061L86.8848 140.659C86.6797 140.024 86.4502 139.224 86.1963 138.257C85.9424 137.29 85.8106 136.709 85.8008 136.514C85.586 137.803 85.2442 139.214 84.7754 140.747L80.586 155H78.125L72.4268 133.584H75.0635L78.4473 146.812C78.916 148.667 79.2578 150.347 79.4727 151.851C79.7364 150.063 80.127 148.315 80.6446 146.606L84.4824 133.584H87.1192L91.1475 146.724C91.6162 148.237 92.0117 149.946 92.334 151.851C92.5196 150.464 92.8711 148.774 93.3887 146.782L96.7578 133.584H99.3946L93.667 155ZM109.165 155.293C106.792 155.293 104.917 154.57 103.54 153.125C102.173 151.68 101.489 149.673 101.489 147.104C101.489 144.517 102.124 142.461 103.394 140.938C104.673 139.414 106.387 138.652 108.535 138.652C110.547 138.652 112.139 139.316 113.311 140.645C114.482 141.963 115.068 143.706 115.068 145.874V147.412H104.009C104.058 149.297 104.531 150.728 105.43 151.704C106.338 152.681 107.612 153.169 109.253 153.169C110.981 153.169 112.69 152.808 114.38 152.085V154.253C113.521 154.624 112.705 154.888 111.934 155.044C111.172 155.21 110.249 155.293 109.165 155.293ZM108.506 140.688C107.217 140.688 106.187 141.108 105.415 141.948C104.653 142.788 104.204 143.95 104.067 145.435H112.461C112.461 143.901 112.119 142.729 111.436 141.919C110.752 141.099 109.775 140.688 108.506 140.688ZM121.66 155H119.229V132.207H121.66V155ZM133.232 155.293C130.908 155.293 129.106 154.58 127.827 153.154C126.558 151.719 125.923 149.692 125.923 147.075C125.923 144.39 126.567 142.314 127.856 140.85C129.155 139.385 131.001 138.652 133.394 138.652C134.165 138.652 134.937 138.735 135.708 138.901C136.48 139.067 137.085 139.263 137.524 139.487L136.777 141.553C136.24 141.338 135.654 141.162 135.02 141.025C134.385 140.879 133.823 140.806 133.335 140.806C130.073 140.806 128.442 142.886 128.442 147.046C128.442 149.019 128.838 150.532 129.629 151.587C130.43 152.642 131.611 153.169 133.174 153.169C134.512 153.169 135.884 152.881 137.29 152.305V154.458C136.216 155.015 134.863 155.293 133.232 155.293ZM154.971 146.958C154.971 149.575 154.312 151.621 152.993 153.096C151.675 154.561 149.854 155.293 147.529 155.293C146.094 155.293 144.819 154.956 143.706 154.282C142.593 153.608 141.733 152.642 141.128 151.382C140.522 150.122 140.22 148.647 140.22 146.958C140.22 144.341 140.874 142.305 142.183 140.85C143.491 139.385 145.308 138.652 147.632 138.652C149.878 138.652 151.66 139.399 152.979 140.894C154.307 142.388 154.971 144.409 154.971 146.958ZM142.739 146.958C142.739 149.009 143.149 150.571 143.97 151.646C144.79 152.72 145.996 153.257 147.588 153.257C149.18 153.257 150.386 152.725 151.206 151.66C152.036 150.586 152.451 149.019 152.451 146.958C152.451 144.917 152.036 143.369 151.206 142.314C150.386 141.25 149.17 140.718 147.559 140.718C145.967 140.718 144.766 141.24 143.955 142.285C143.145 143.33 142.739 144.888 142.739 146.958ZM179.712 155V144.556C179.712 143.276 179.438 142.319 178.892 141.685C178.345 141.04 177.495 140.718 176.343 140.718C174.829 140.718 173.711 141.152 172.988 142.021C172.266 142.891 171.904 144.229 171.904 146.035V155H169.473V144.556C169.473 143.276 169.199 142.319 168.652 141.685C168.105 141.04 167.251 140.718 166.089 140.718C164.565 140.718 163.447 141.177 162.734 142.095C162.031 143.003 161.68 144.497 161.68 146.577V155H159.248V138.945H161.226L161.621 141.143H161.738C162.197 140.361 162.842 139.751 163.672 139.312C164.512 138.872 165.449 138.652 166.484 138.652C168.994 138.652 170.635 139.561 171.406 141.377H171.523C172.002 140.537 172.695 139.873 173.604 139.385C174.512 138.896 175.547 138.652 176.709 138.652C178.525 138.652 179.883 139.121 180.781 140.059C181.689 140.986 182.144 142.476 182.144 144.526V155H179.712ZM193.95 155.293C191.577 155.293 189.702 154.57 188.325 153.125C186.958 151.68 186.274 149.673 186.274 147.104C186.274 144.517 186.909 142.461 188.179 140.938C189.458 139.414 191.172 138.652 193.32 138.652C195.332 138.652 196.924 139.316 198.096 140.645C199.268 141.963 199.854 143.706 199.854 145.874V147.412H188.794C188.843 149.297 189.316 150.728 190.215 151.704C191.123 152.681 192.397 153.169 194.038 153.169C195.767 153.169 197.476 152.808 199.165 152.085V154.253C198.306 154.624 197.49 154.888 196.719 155.044C195.957 155.21 195.034 155.293 193.95 155.293ZM193.291 140.688C192.002 140.688 190.972 141.108 190.2 141.948C189.439 142.788 188.989 143.95 188.853 145.435H197.246C197.246 143.901 196.904 142.729 196.221 141.919C195.537 141.099 194.561 140.688 193.291 140.688ZM216.992 153.286C217.422 153.286 217.837 153.257 218.237 153.198C218.638 153.13 218.955 153.062 219.189 152.993V154.854C218.926 154.98 218.535 155.083 218.018 155.161C217.51 155.249 217.051 155.293 216.641 155.293C213.535 155.293 211.982 153.657 211.982 150.386V140.835H209.683V139.663L211.982 138.652L213.008 135.225H214.414V138.945H219.072V140.835H214.414V150.283C214.414 151.25 214.644 151.992 215.103 152.51C215.562 153.027 216.191 153.286 216.992 153.286ZM236.27 146.958C236.27 149.575 235.61 151.621 234.292 153.096C232.974 154.561 231.152 155.293 228.828 155.293C227.393 155.293 226.118 154.956 225.005 154.282C223.892 153.608 223.032 152.642 222.427 151.382C221.821 150.122 221.519 148.647 221.519 146.958C221.519 144.341 222.173 142.305 223.481 140.85C224.79 139.385 226.606 138.652 228.931 138.652C231.177 138.652 232.959 139.399 234.277 140.894C235.605 142.388 236.27 144.409 236.27 146.958ZM224.038 146.958C224.038 149.009 224.448 150.571 225.269 151.646C226.089 152.72 227.295 153.257 228.887 153.257C230.479 153.257 231.685 152.725 232.505 151.66C233.335 150.586 233.75 149.019 233.75 146.958C233.75 144.917 233.335 143.369 232.505 142.314C231.685 141.25 230.469 140.718 228.857 140.718C227.266 140.718 226.064 141.24 225.254 142.285C224.443 143.33 224.038 144.888 224.038 146.958ZM134.858 196H132.397L128.076 181.659C127.871 181.024 127.642 180.224 127.388 179.257C127.134 178.29 127.002 177.709 126.992 177.514C126.777 178.803 126.436 180.214 125.967 181.747L121.777 196H119.316L113.618 174.584H116.255L119.639 187.812C120.107 189.667 120.449 191.347 120.664 192.851C120.928 191.063 121.318 189.315 121.836 187.606L125.674 174.584H128.311L132.339 187.724C132.808 189.237 133.203 190.946 133.525 192.851C133.711 191.464 134.063 189.774 134.58 187.782L137.949 174.584H140.586L134.858 196ZM157.402 196L154.736 189.188H146.152L143.516 196H140.996L149.463 174.496H151.558L159.98 196H157.402ZM153.96 186.947L151.47 180.312C151.147 179.472 150.815 178.441 150.474 177.221C150.259 178.158 149.951 179.188 149.551 180.312L147.031 186.947H153.96ZM170.029 196.293C168.984 196.293 168.027 196.103 167.158 195.722C166.299 195.331 165.576 194.735 164.99 193.935H164.814C164.932 194.872 164.99 195.761 164.99 196.601V203.207H162.559V179.945H164.536L164.873 182.143H164.99C165.615 181.264 166.343 180.629 167.173 180.238C168.003 179.848 168.955 179.652 170.029 179.652C172.158 179.652 173.799 180.38 174.951 181.835C176.113 183.29 176.694 185.331 176.694 187.958C176.694 190.595 176.104 192.646 174.922 194.11C173.75 195.565 172.119 196.293 170.029 196.293ZM169.678 181.718C168.037 181.718 166.851 182.172 166.118 183.08C165.386 183.988 165.01 185.434 164.99 187.416V187.958C164.99 190.214 165.366 191.83 166.118 192.807C166.87 193.773 168.076 194.257 169.736 194.257C171.123 194.257 172.207 193.695 172.988 192.572C173.779 191.449 174.175 189.901 174.175 187.929C174.175 185.927 173.779 184.394 172.988 183.329C172.207 182.255 171.104 181.718 169.678 181.718ZM188.428 196.293C187.383 196.293 186.426 196.103 185.557 195.722C184.697 195.331 183.975 194.735 183.389 193.935H183.213C183.33 194.872 183.389 195.761 183.389 196.601V203.207H180.957V179.945H182.935L183.272 182.143H183.389C184.014 181.264 184.741 180.629 185.571 180.238C186.401 179.848 187.354 179.652 188.428 179.652C190.557 179.652 192.197 180.38 193.35 181.835C194.512 183.29 195.093 185.331 195.093 187.958C195.093 190.595 194.502 192.646 193.32 194.11C192.148 195.565 190.518 196.293 188.428 196.293ZM188.076 181.718C186.436 181.718 185.249 182.172 184.517 183.08C183.784 183.988 183.408 185.434 183.389 187.416V187.958C183.389 190.214 183.765 191.83 184.517 192.807C185.269 193.773 186.475 194.257 188.135 194.257C189.522 194.257 190.605 193.695 191.387 192.572C192.178 191.449 192.573 189.901 192.573 187.929C192.573 185.927 192.178 184.394 191.387 183.329C190.605 182.255 189.502 181.718 188.076 181.718Z" fill="#28C3D4"/>
</svg>
